<?xml version="1.0" standalone="no"?>
<!DOCTYPE svg PUBLIC "-//W3C//DTD SVG 20010904//EN"
 "http://www.w3.org/TR/2001/REC-SVG-20010904/DTD/svg10.dtd">
<svg version="1.0" xmlns="http://www.w3.org/2000/svg"
 width="681.000000pt" height="681.000000pt" viewBox="0 0 681.000000 681.000000"
 preserveAspectRatio="xMidYMid meet">
<metadata>
Created by potrace 1.13, written by Peter Selinger 2001-2015
</metadata>
<g transform="translate(0.000000,681.000000) scale(0.100000,-0.100000)"
fill="#000000" stroke="none">
<path d="M3207 6804 c-1 -1 -38 -5 -82 -8 -152 -13 -260 -27 -330 -43 -16 -4
-37 -7 -45 -8 -8 -1 -31 -5 -50 -10 -42 -11 -32 -8 -105 -25 -75 -17 -74 -17
-77 -20 -2 -1 -10 -3 -18 -5 -8 -1 -42 -11 -75 -21 -33 -10 -62 -18 -65 -19
-3 0 -10 -3 -16 -7 -6 -4 -21 -9 -35 -12 -20 -4 -96 -31 -149 -53 -8 -3 -17
-7 -20 -8 -3 -1 -23 -9 -45 -19 -61 -27 -90 -39 -95 -40 -18 -4 -181 -89 -185
-97 -4 -5 -10 -7 -15 -4 -5 3 -11 1 -14 -4 -3 -5 -32 -22 -63 -39 -78 -40
-245 -149 -333 -217 -22 -16 -58 -43 -81 -60 -22 -16 -64 -51 -93 -76 -28 -25
-59 -52 -70 -60 -41 -31 -276 -263 -276 -272 0 -6 -24 -36 -52 -67 -75 -81
-128 -147 -128 -157 0 -5 -12 -20 -26 -34 -14 -13 -30 -33 -35 -44 -5 -11 -25
-40 -43 -65 -19 -25 -35 -50 -35 -56 -1 -6 -10 -19 -21 -29 -11 -10 -20 -22
-20 -27 0 -5 -13 -28 -28 -51 -15 -23 -34 -55 -42 -72 -8 -16 -21 -38 -29 -47
-8 -10 -11 -18 -6 -18 4 0 3 -6 -3 -13 -10 -12 -75 -137 -77 -147 0 -3 -15
-35 -33 -71 -18 -37 -32 -70 -32 -73 0 -4 -9 -26 -19 -49 -11 -24 -23 -55 -26
-70 -4 -15 -11 -30 -16 -33 -5 -3 -9 -16 -9 -29 0 -13 -4 -27 -10 -30 -5 -3
-10 -15 -10 -26 0 -10 -4 -27 -9 -37 -12 -22 -33 -105 -29 -113 2 -3 -3 -13
-11 -22 -7 -10 -11 -17 -7 -17 3 0 1 -11 -4 -26 -6 -14 -13 -39 -16 -57 -8
-44 -12 -62 -14 -62 -1 0 -3 -11 -6 -25 -7 -40 -12 -71 -23 -135 -6 -33 -14
-82 -17 -110 -3 -27 -8 -61 -10 -75 -33 -185 -21 -704 20 -930 3 -14 7 -41 10
-61 3 -20 8 -42 10 -50 3 -8 7 -30 10 -50 3 -20 10 -49 16 -65 6 -16 11 -30
10 -32 -5 -9 44 -187 62 -227 5 -12 10 -27 12 -35 2 -8 6 -23 10 -32 4 -9 9
-22 10 -30 2 -7 8 -26 14 -41 7 -16 12 -30 12 -32 0 -2 5 -16 12 -32 6 -15 12
-34 14 -41 1 -8 15 -39 30 -70 16 -32 29 -59 29 -62 1 -3 10 -25 22 -50 11
-25 23 -52 26 -60 4 -8 25 -46 47 -85 22 -38 48 -88 59 -111 11 -22 27 -47 36
-54 8 -7 15 -16 15 -20 0 -5 24 -43 53 -86 28 -42 57 -84 62 -93 22 -36 93
-127 108 -140 10 -7 17 -19 17 -25 0 -6 22 -33 50 -61 27 -27 49 -54 50 -59 0
-13 236 -251 295 -298 28 -22 69 -58 92 -79 23 -21 45 -39 49 -39 3 0 24 -15
44 -32 40 -34 76 -62 115 -88 13 -8 44 -30 69 -47 26 -18 51 -33 55 -33 5 0
15 -7 22 -16 7 -9 22 -20 34 -25 11 -5 43 -22 70 -38 54 -32 348 -184 353
-182 1 1 23 -7 48 -19 26 -11 48 -20 50 -20 1 0 15 -5 31 -12 15 -6 30 -12 33
-13 3 -1 12 -5 20 -8 40 -18 190 -65 190 -60 0 3 7 0 15 -7 8 -7 15 -10 15 -7
0 3 25 -3 55 -13 30 -10 55 -17 55 -15 0 2 18 -2 40 -10 22 -8 40 -12 40 -10
0 3 10 1 23 -4 12 -5 44 -12 71 -15 27 -4 52 -9 56 -11 3 -2 26 -6 50 -10 25
-3 59 -8 76 -11 32 -5 57 -8 179 -21 91 -10 529 -10 620 0 39 4 88 9 110 12
48 5 119 15 148 21 62 12 85 16 112 19 17 2 42 8 58 14 15 6 27 9 27 6 0 -2
18 2 40 10 22 8 44 14 48 14 8 0 91 21 112 28 8 4 20 7 27 9 26 5 209 67 218
74 9 6 103 43 115 45 25 4 321 154 343 172 9 9 17 12 17 8 0 -4 8 -1 18 7 9 8
24 18 32 22 35 16 228 146 300 201 25 19 57 43 72 53 77 51 416 382 508 496
30 37 70 85 88 106 17 20 32 41 32 45 0 4 12 22 28 41 50 61 72 92 72 102 0 5
9 17 20 27 11 10 20 22 20 28 0 5 12 28 28 51 15 22 34 55 42 71 8 17 19 37
26 45 14 18 95 177 120 235 9 22 29 67 44 100 15 33 31 71 35 85 4 14 11 30
15 35 7 9 69 190 74 218 2 7 5 19 8 27 7 18 28 97 33 119 2 9 9 39 15 66 6 28
14 59 16 70 2 11 6 31 9 45 3 14 8 41 11 60 3 19 7 40 9 47 2 6 7 38 10 70 4
32 9 69 11 83 25 125 25 644 -1 815 -2 17 -6 48 -9 70 -3 22 -8 51 -10 65 -3
14 -8 43 -11 65 -14 87 -18 104 -47 215 -16 63 -31 122 -33 130 -2 8 -4 15 -5
15 -1 0 -3 8 -5 18 -2 10 -7 26 -11 35 -4 9 -8 23 -10 30 -1 8 -6 21 -10 30
-4 9 -8 23 -10 30 -1 8 -6 21 -10 30 -4 9 -8 20 -9 25 -2 4 -4 9 -5 12 -1 3
-3 8 -5 13 -1 4 -7 20 -13 35 -7 16 -12 31 -12 34 0 3 -17 42 -39 87 -21 44
-42 92 -46 106 -4 14 -11 30 -15 35 -4 6 -26 45 -49 88 -57 108 -64 120 -80
140 -8 9 -10 17 -6 17 4 0 0 9 -10 20 -10 11 -23 29 -29 39 -47 82 -78 130
-96 146 -11 10 -20 22 -20 27 0 11 -29 51 -81 111 -20 23 -38 47 -40 53 -19
52 -440 471 -528 525 -14 9 -33 24 -41 33 -8 10 -44 38 -80 62 -36 25 -83 58
-105 75 -22 16 -49 34 -60 39 -11 6 -33 19 -50 30 -16 11 -37 23 -45 27 -8 3
-33 18 -55 32 -38 24 -284 151 -295 152 -3 1 -23 9 -45 18 -38 17 -74 32 -85
36 -6 2 -59 23 -80 32 -8 3 -21 7 -28 9 -8 1 -21 6 -30 10 -9 4 -23 8 -30 10
-8 1 -21 6 -30 10 -9 4 -26 9 -36 11 -11 2 -25 8 -33 14 -7 6 -13 9 -13 6 0
-4 -18 0 -40 8 -22 8 -42 15 -45 15 -3 0 -10 2 -17 5 -7 2 -40 9 -73 16 -69
15 -60 13 -105 24 -19 5 -42 9 -50 10 -8 1 -28 4 -45 8 -45 10 -144 25 -216
32 -24 2 -71 7 -104 11 -50 6 -482 13 -488 8z m1083 -2514 l0 -1590 447 0 448
0 -885 -885 c-487 -487 -889 -885 -895 -885 -6 0 -408 398 -895 885 l-885 885
448 0 447 0 0 1590 0 1590 885 0 885 0 0 -1590z"/>
</g>
</svg>
