<?xml version="1.0" standalone="no"?>
<!DOCTYPE svg PUBLIC "-//W3C//DTD SVG 20010904//EN"
 "http://www.w3.org/TR/2001/REC-SVG-20010904/DTD/svg10.dtd">
<svg version="1.0" xmlns="http://www.w3.org/2000/svg"
 width="1500.000000pt" height="2000.000000pt" viewBox="0 0 1500.000000 2000.000000"
 preserveAspectRatio="xMidYMid meet">
<metadata>
Created by potrace 1.13, written by Peter Selinger 2001-2015
</metadata>
<g transform="translate(0.000000,2000.000000) scale(0.100000,-0.100000)"
fill="#000000" stroke="none">
<path d="M5007 19220 c-222 -73 -268 -96 -292 -147 -24 -49 -87 -372 -82 -418
6 -55 133 -337 172 -382 18 -21 1212 -981 2653 -2133 l2621 -2095 0 -632 1
-633 -130 0 c-77 0 -130 4 -130 10 0 27 -73 466 -81 487 -14 37 -65 53 -174
53 -109 0 -160 -16 -174 -53 -8 -21 -81 -460 -81 -487 0 -6 -1029 -11 -2797
-12 l-2798 -3 -85 -28 c-139 -47 -224 -99 -325 -201 -100 -100 -154 -191 -197
-326 l-23 -75 0 -5440 0 -5440 23 -75 c43 -135 97 -226 197 -326 101 -102 186
-154 325 -201 l85 -28 3940 0 3940 0 83 27 c277 91 460 282 534 558 l23 85 0
5400 0 5400 -23 85 c-86 322 -344 547 -669 585 l-63 7 -2 937 -3 937 -26 40
c-19 28 -786 614 -2824 2158 -2789 2111 -2799 2119 -3039 2264 -242 145 -296
172 -345 172 -14 0 -120 -31 -234 -70z m443 -415 c175 -105 428 -294 2941
-2197 l2749 -2082 0 -363 0 -363 -365 0 -365 0 2 168 3 167 205 138 c113 76
212 142 220 147 11 7 5 21 -33 79 -31 47 -52 69 -60 64 -7 -4 -102 -68 -211
-142 -109 -74 -204 -134 -210 -134 -7 0 -1193 945 -2637 2100 l-2625 2100 -46
102 -45 102 17 85 c10 47 20 87 23 90 3 4 52 21 109 39 72 23 108 30 120 24
10 -5 104 -61 208 -124z m5020 -5600 l0 -425 -25 0 -25 0 0 425 0 425 25 0 25
0 0 -425z m310 0 l0 -425 -70 0 -70 0 0 425 0 425 70 0 70 0 0 -425z m250 0
l0 -425 -40 0 -40 0 0 425 0 425 40 0 40 0 0 -425z m544 -780 c159 -42 284
-178 316 -344 14 -75 14 -10677 0 -10752 -32 -166 -157 -302 -316 -344 -51
-13 -507 -15 -3919 -15 -3191 0 -3869 3 -3910 14 -148 39 -257 140 -306 284
-19 54 -19 179 -19 5437 0 5258 0 5383 19 5437 49 142 157 243 301 284 36 10
844 12 3910 13 3418 1 3873 -1 3924 -14z"/>
<path d="M5941 11506 c12 -20 23 -36 25 -36 7 0 -25 58 -36 65 -5 3 -1 -10 11
-29z"/>
<path d="M5953 11433 c4 -6 0 -19 -8 -29 -14 -19 -14 -19 -15 1 -1 19 -1 19
-14 3 -12 -17 -45 -18 -440 -18 -277 0 -426 3 -426 10 0 6 -16 10 -35 10 -19
0 -35 -4 -35 -10 0 -13 -665 -14 -689 0 -40 21 -42 -11 -41 -680 1 -377 5
-640 10 -642 5 -2 11 -12 13 -23 6 -40 48 -100 61 -88 3 4 6 1 6 -5 0 -7 18
-23 39 -37 l40 -24 699 0 699 0 41 27 c23 14 45 35 48 44 3 10 10 16 15 13 13
-9 50 57 43 77 -3 10 -1 18 5 18 6 0 10 219 11 650 0 481 -2 650 -11 650 -7 0
-9 10 -7 25 3 14 1 28 -5 32 -5 3 -7 2 -4 -4z m-875 -151 c12 -12 28 -19 37
-16 8 4 15 1 15 -5 0 -6 5 -11 11 -11 5 0 8 4 5 8 -2 4 4 8 14 8 10 0 16 -4
13 -9 -2 -4 7 -5 21 -1 17 4 26 2 26 -6 0 -6 5 -8 10 -5 6 3 10 -4 10 -16 0
-12 3 -20 6 -16 3 3 17 -6 31 -21 14 -15 30 -26 35 -24 5 1 7 -1 4 -6 -3 -5 5
-24 18 -43 68 -101 82 -251 32 -352 -51 -106 -164 -177 -280 -177 -40 0 -67 7
-110 30 -106 57 -138 100 -158 211 -9 50 -8 67 6 104 19 50 70 99 130 126 119
54 255 -27 271 -162 11 -86 -61 -159 -155 -159 -76 0 -129 49 -130 120 l0 35
43 -48 c24 -26 52 -48 63 -48 41 -3 60 3 84 27 30 30 31 89 0 138 -23 37 -39
45 -98 42 -61 -3 -107 -40 -128 -102 -17 -49 -17 -54 0 -97 21 -56 63 -112 95
-127 36 -17 150 -10 191 11 78 39 123 116 121 206 -1 28 3 54 9 58 12 7 -69
133 -91 140 -9 3 -30 18 -48 34 -31 27 -103 48 -171 49 -36 1 -142 -29 -161
-45 -8 -7 -21 -13 -27 -13 -19 0 -77 -61 -116 -122 -19 -32 -34 -58 -32 -58 3
0 0 -15 -6 -32 -27 -85 10 -269 68 -338 94 -111 144 -145 257 -175 101 -26
179 -26 250 1 20 8 37 11 37 8 0 -4 6 -2 13 3 6 6 36 19 66 29 30 10 66 31 80
47 14 15 29 27 33 27 11 0 48 30 89 73 20 20 41 37 46 37 6 0 26 30 44 68 19
37 37 69 42 70 4 2 7 15 7 28 0 30 39 114 52 114 6 0 8 -10 4 -22 -4 -13 -9
-45 -12 -72 -6 -58 -41 -146 -88 -219 -41 -64 -139 -161 -198 -195 -24 -14
-50 -31 -58 -38 -8 -7 -37 -18 -65 -25 -27 -6 -54 -15 -60 -19 -25 -19 -155
-26 -259 -14 -193 22 -395 210 -437 405 -18 82 -7 244 20 299 40 83 51 97 111
152 33 30 56 59 52 63 -4 5 -2 5 5 2 21 -12 41 3 35 26 -5 21 -5 21 12 5 22
-23 33 -23 15 -1 -8 10 -9 14 -2 10 6 -4 14 -3 18 3 3 5 12 10 18 10 7 0 6 -4
-3 -10 -23 -15 7 -12 50 6 l35 14 -35 -5 c-31 -5 -33 -4 -12 7 12 6 22 15 22
21 0 6 27 8 69 5 52 -4 73 -10 89 -26z"/>
<path d="M5200 11206 c0 -2 14 -14 30 -26 17 -12 30 -19 30 -16 0 2 -13 14
-30 26 -16 12 -30 19 -30 16z"/>
<path d="M4768 11174 c-38 -20 -36 -28 2 -9 17 9 30 18 30 20 0 7 -1 6 -32
-11z"/>
<path d="M4669 11083 c-13 -16 -12 -17 4 -4 16 13 21 21 13 21 -2 0 -10 -8
-17 -17z"/>
<path d="M5018 11053 c6 -2 18 -2 25 0 6 3 1 5 -13 5 -14 0 -19 -2 -12 -5z"/>
<path d="M4875 10984 c-9 -15 -12 -23 -6 -20 11 7 35 46 28 46 -3 0 -12 -12
-22 -26z"/>
<path d="M5165 10837 c-6 -12 -25 -32 -44 -44 -19 -13 -30 -23 -26 -23 17 0
75 46 81 63 8 27 0 30 -11 4z"/>
<path d="M4581 10824 c0 -11 3 -14 6 -6 3 7 2 16 -1 19 -3 4 -6 -2 -5 -13z"/>
<path d="M5231 10694 c-24 -18 -40 -34 -35 -34 5 0 27 16 49 35 52 44 43 44
-14 -1z"/>
<path d="M4942 10684 c10 -10 20 -16 22 -13 3 3 -5 11 -17 18 -21 13 -21 12
-5 -5z"/>
<path d="M5650 10650 c-6 -11 -8 -20 -6 -20 3 0 10 9 16 20 6 11 8 20 6 20 -3
0 -10 -9 -16 -20z"/>
<path d="M5605 10580 c-3 -6 1 -7 9 -4 18 7 21 14 7 14 -6 0 -13 -4 -16 -10z"/>
<path d="M5546 10513 c-6 -14 -5 -15 5 -6 7 7 10 15 7 18 -3 3 -9 -2 -12 -12z"/>
<path d="M4747 10499 c7 -7 15 -10 18 -7 3 3 -2 9 -12 12 -14 6 -15 5 -6 -5z"/>
<path d="M5467 10462 c-10 -10 -17 -23 -17 -28 0 -4 7 1 15 13 8 12 28 24 43
26 l27 4 -26 2 c-14 0 -33 -7 -42 -17z"/>
<path d="M5408 10423 c6 -2 18 -2 25 0 6 3 1 5 -13 5 -14 0 -19 -2 -12 -5z"/>
<path d="M5300 10384 l-45 -14 39 5 c22 2 44 9 50 15 5 5 8 9 6 9 -3 -1 -25
-8 -50 -15z"/>
<path d="M4890 10386 c0 -2 18 -6 39 -8 22 -2 37 0 35 4 -5 8 -74 11 -74 4z"/>
<path d="M7115 11279 c-44 -10 -97 -21 -117 -24 -51 -8 -49 -31 3 -38 22 -3
44 -8 47 -12 4 -4 7 -166 7 -361 0 -390 3 -374 -62 -374 -28 0 -33 -3 -33 -25
l0 -25 170 0 170 0 0 25 c0 22 -4 25 -34 25 -18 0 -39 7 -46 15 -10 12 -12
102 -9 412 3 259 1 397 -6 398 -5 2 -46 -6 -90 -16z"/>
<path d="M9929 11251 c-21 -22 -29 -39 -29 -66 0 -27 8 -44 29 -66 41 -41 91
-40 133 1 27 28 30 36 25 73 -11 84 -99 116 -158 58z"/>
<path d="M6240 11227 c0 -19 7 -25 43 -33 41 -9 42 -10 49 -59 8 -64 8 -523 0
-595 l-7 -55 -42 -9 c-36 -7 -43 -13 -43 -32 l0 -24 195 0 195 0 0 23 c0 20
-7 25 -52 33 l-53 9 -8 110 c-9 115 -3 572 7 582 3 4 30 8 59 10 97 7 155 -43
163 -143 9 -101 -51 -174 -142 -174 -50 0 -59 -9 -38 -38 12 -18 25 -22 68
-22 91 0 155 25 211 83 126 130 92 310 -65 346 -25 6 -156 11 -292 11 l-248 0
0 -23z"/>
<path d="M7555 10974 c-31 -12 -171 -44 -191 -44 -2 0 -4 -11 -4 -25 0 -20 5
-25 26 -25 14 0 34 -5 45 -10 18 -10 19 -23 19 -178 0 -144 3 -172 19 -202 24
-46 89 -80 153 -80 61 0 80 9 146 73 l52 51 0 -57 0 -57 120 0 120 0 0 25 c0
21 -5 25 -29 25 -16 0 -37 8 -47 17 -15 15 -16 41 -12 260 2 134 3 243 1 243
-2 0 -19 -7 -39 -15 -27 -11 -177 -45 -200 -45 -2 0 -4 -11 -4 -25 0 -20 5
-25 26 -25 14 0 34 -5 45 -10 17 -10 19 -22 18 -128 -1 -64 -4 -128 -8 -141
-9 -35 -52 -62 -103 -68 -37 -4 -49 -1 -74 20 l-29 25 1 206 c0 113 -2 206 -5
205 -3 0 -24 -7 -46 -15z"/>
<path d="M8324 10981 c-107 -28 -174 -109 -174 -213 0 -69 30 -119 93 -151
l28 -15 -45 -37 c-69 -56 -76 -133 -14 -159 l30 -13 -46 -27 c-62 -36 -80 -65
-74 -119 3 -24 13 -55 23 -70 59 -91 307 -116 448 -45 103 52 162 147 155 250
-4 50 -9 64 -36 91 l-32 32 -183 5 c-181 5 -207 9 -207 34 0 27 36 46 87 46
105 0 201 48 243 123 20 33 25 57 25 114 l0 73 47 0 c36 0 51 5 60 19 10 16
17 17 47 9 20 -5 41 -15 47 -21 10 -12 79 -232 125 -404 l22 -83 49 0 c49 0
49 0 69 48 42 98 143 302 150 302 4 0 42 -79 85 -175 l79 -175 50 0 50 1 53
162 c65 198 116 327 134 338 7 5 23 9 36 9 17 0 22 6 22 25 l0 25 -125 0
c-125 0 -125 0 -125 -24 0 -20 6 -24 40 -30 35 -5 40 -10 40 -32 0 -35 -80
-275 -90 -269 -7 4 -117 240 -154 328 -14 34 -19 38 -47 35 -30 -3 -34 -10
-117 -186 -47 -100 -89 -179 -93 -175 -10 12 -82 284 -76 290 3 2 24 7 46 10
36 5 41 9 41 31 l0 25 -267 -3 c-148 -2 -317 0 -378 3 -60 3 -124 3 -141 -2z
m125 -67 c46 -32 63 -116 41 -196 -27 -96 -152 -89 -180 10 -14 51 -12 122 4
151 27 48 92 65 135 35z m137 -545 c9 -10 18 -37 21 -60 6 -53 -22 -101 -77
-133 -52 -31 -191 -30 -241 1 -40 25 -59 59 -59 105 0 22 11 41 40 70 l40 40
129 -3 c104 -3 134 -7 147 -20z"/>
<path d="M10018 10975 c-21 -8 -74 -19 -118 -26 -74 -10 -80 -13 -80 -35 0
-20 5 -24 33 -24 62 0 62 0 62 -209 0 -104 -3 -192 -7 -196 -3 -4 -25 -9 -47
-12 -35 -5 -41 -9 -41 -29 l0 -24 170 0 170 0 0 24 c0 20 -6 25 -40 31 -28 5
-41 13 -46 28 -4 11 -5 124 -3 250 3 148 0 231 -6 233 -5 1 -27 -4 -47 -11z"/>
<path d="M10369 10974 c-114 -35 -165 -171 -99 -264 16 -23 37 -34 93 -50 40
-11 96 -28 124 -36 76 -22 95 -68 50 -120 -20 -23 -34 -28 -83 -31 -95 -7
-154 37 -154 115 0 27 -4 32 -24 32 -22 0 -23 -4 -29 -82 -8 -98 -7 -100 89
-118 128 -24 252 9 309 84 52 68 41 190 -22 231 -13 9 -65 25 -116 36 -127 28
-157 49 -143 104 9 35 59 58 113 52 62 -7 92 -30 99 -77 5 -33 11 -40 29 -40
20 0 23 6 29 71 3 39 4 74 1 79 -18 28 -190 38 -266 14z"/>
<path d="M11010 10981 c-49 -16 -111 -52 -150 -88 -47 -42 -70 -107 -70 -198
0 -189 114 -295 304 -283 90 6 159 35 181 77 21 41 12 55 -25 36 -42 -22 -131
-30 -175 -15 -58 19 -103 65 -120 123 -8 28 -15 54 -15 59 0 4 58 8 130 8 71
0 152 5 180 11 l50 11 0 47 c0 91 -36 159 -103 193 -45 22 -145 33 -187 19z
m100 -78 c26 -23 32 -38 37 -85 l6 -58 -108 0 -107 0 7 47 c8 56 28 98 52 112
34 19 81 12 113 -16z"/>
<path d="M4200 8477 c-78 -25 -150 -136 -134 -204 30 -126 159 -196 263 -141
25 13 59 40 75 61 28 35 31 46 31 106 0 60 -3 71 -32 108 -52 64 -134 93 -203
70z"/>
<path d="M4601 8447 c-8 -10 -11 -59 -9 -158 l3 -144 93 -3 92 -3 0 26 c0 24
-2 25 -60 25 l-60 0 0 45 0 45 50 0 c47 0 50 2 50 25 0 23 -3 25 -50 25 l-50
0 0 35 0 34 58 3 c53 3 57 5 57 28 0 24 -2 25 -81 28 -61 2 -84 -1 -93 -11z"/>
<path d="M4804 8445 c-12 -30 4 -45 46 -45 l40 0 0 -131 0 -130 33 3 32 3 3
128 3 127 38 0 c42 0 61 21 40 46 -17 21 -227 20 -235 -1z"/>
<path d="M5085 8448 c-3 -8 -4 -79 -3 -158 l3 -145 33 -3 32 -3 0 70 0 71 60
0 60 0 0 -70 0 -70 30 0 31 0 -3 158 -3 157 -27 3 -28 3 0 -65 0 -66 -60 0
-59 0 -3 63 c-3 59 -4 62 -31 65 -16 2 -29 -2 -32 -10z"/>
<path d="M5401 8447 c-8 -10 -11 -59 -9 -158 l3 -144 93 -3 92 -3 0 26 c0 24
-2 25 -60 25 l-60 0 0 45 0 45 50 0 c47 0 50 2 50 25 0 23 -3 25 -50 25 l-50
0 0 35 0 34 58 3 c53 3 57 5 57 28 0 24 -2 25 -81 28 -61 2 -84 -1 -93 -11z"/>
<path d="M5652 8447 c-9 -11 -12 -56 -10 -158 l3 -144 33 -3 32 -3 0 66 c0 63
1 66 23 63 16 -2 30 -20 52 -65 28 -58 32 -63 63 -63 30 0 33 2 27 23 -4 12
-19 45 -34 73 l-27 51 23 21 c35 31 29 97 -10 126 -36 27 -156 36 -175 13z
m112 -47 c20 -7 26 -17 26 -39 0 -30 -14 -41 -56 -41 -22 0 -24 4 -24 45 0 49
7 53 54 35z"/>
<path d="M5931 8446 c-8 -9 -11 -60 -9 -157 l3 -144 28 -3 27 -3 0 118 0 118
63 -115 c61 -112 63 -115 99 -118 48 -4 50 3 46 178 -3 122 -5 135 -22 138
-10 2 -22 0 -27 -5 -4 -4 -9 -54 -10 -111 -1 -56 -3 -102 -5 -102 -1 0 -24 42
-49 93 -26 50 -56 100 -67 110 -24 21 -61 22 -77 3z"/>
<path d="M6261 8447 c-8 -10 -11 -59 -9 -158 l3 -144 93 -3 92 -3 0 26 c0 24
-2 25 -60 25 l-60 0 0 45 0 45 50 0 c47 0 50 2 50 25 0 23 -3 25 -50 25 l-50
0 0 35 0 34 58 3 c53 3 57 5 57 28 0 24 -2 25 -81 28 -61 2 -84 -1 -93 -11z"/>
<path d="M6464 8445 c-12 -30 4 -45 46 -45 l40 0 0 -131 0 -130 33 3 32 3 3
128 3 127 38 0 c42 0 61 21 40 46 -17 21 -227 20 -235 -1z"/>
<path d="M4206 7543 c-61 -16 -123 -85 -140 -156 -10 -44 14 -108 59 -152 81
-81 182 -80 261 2 68 70 73 164 12 237 -49 60 -123 86 -192 69z"/>
<path d="M4595 7508 c-3 -8 -4 -79 -3 -158 l3 -145 33 -3 33 -3 -3 158 -3 158
-28 3 c-16 2 -29 -2 -32 -10z"/>
<path d="M4731 7506 c-8 -9 -11 -60 -9 -157 l3 -144 28 -3 27 -3 0 118 0 118
63 -115 c61 -112 63 -115 99 -118 48 -4 50 3 46 178 -3 122 -5 135 -22 138
-10 2 -22 0 -27 -5 -4 -4 -9 -54 -10 -111 -1 -56 -3 -102 -5 -102 -1 0 -24 42
-49 93 -26 50 -56 100 -67 110 -24 21 -61 22 -77 3z"/>
<path d="M5024 7505 c-12 -30 4 -45 46 -45 l40 0 0 -131 0 -130 33 3 32 3 3
128 3 127 38 0 c42 0 61 21 40 46 -17 21 -227 20 -235 -1z"/>
<path d="M5311 7507 c-8 -10 -11 -59 -9 -158 l3 -144 93 -3 92 -3 0 26 c0 24
-2 25 -60 25 l-60 0 0 45 0 45 50 0 c47 0 50 2 50 25 0 23 -3 25 -50 25 l-50
0 0 35 0 34 58 3 c53 3 57 5 57 28 0 24 -2 25 -81 28 -61 2 -84 -1 -93 -11z"/>
<path d="M5552 7507 c-9 -11 -12 -56 -10 -158 l3 -144 33 -3 32 -3 0 66 c0 63
1 66 23 63 16 -2 30 -20 52 -65 28 -58 32 -63 63 -63 30 0 33 2 27 23 -4 12
-19 45 -34 73 l-27 51 23 21 c35 31 29 97 -10 126 -36 27 -156 36 -175 13z
m112 -47 c20 -7 26 -17 26 -39 0 -30 -14 -41 -56 -41 -22 0 -24 4 -24 45 0 49
7 53 54 35z"/>
<path d="M5831 7506 c-8 -9 -11 -60 -9 -157 l3 -144 28 -3 27 -3 0 118 0 118
63 -115 c61 -112 63 -115 99 -118 48 -4 50 3 46 178 -3 122 -5 135 -22 138
-10 2 -22 0 -27 -5 -4 -4 -9 -54 -10 -111 -1 -56 -3 -102 -5 -102 -1 0 -24 42
-49 93 -26 50 -56 100 -67 110 -24 21 -61 22 -77 3z"/>
<path d="M6161 7507 c-8 -10 -11 -59 -9 -158 l3 -144 93 -3 92 -3 0 26 c0 24
-2 25 -60 25 l-60 0 0 45 0 45 50 0 c47 0 50 2 50 25 0 23 -3 25 -50 25 l-50
0 0 35 0 34 58 3 c53 3 57 5 57 28 0 24 -2 25 -81 28 -61 2 -84 -1 -93 -11z"/>
<path d="M6374 7505 c-12 -30 4 -45 46 -45 l40 0 0 -131 0 -130 33 3 32 3 3
128 3 127 38 0 c42 0 61 21 40 46 -17 21 -227 20 -235 -1z"/>
<path d="M4172 6699 c-142 -70 -140 -260 3 -329 92 -44 201 -7 245 85 76 158
-90 322 -248 244z"/>
<path d="M4576 6682 c-3 -5 12 -76 33 -158 l38 -149 44 0 43 0 23 93 c12 52
24 99 26 105 2 7 15 -35 29 -93 l25 -105 44 0 43 0 38 140 c46 173 46 177 11
173 -27 -3 -29 -8 -59 -128 l-30 -125 -29 115 c-15 63 -32 121 -38 128 -6 7
-22 12 -36 10 -24 -3 -28 -10 -57 -128 l-30 -125 -30 125 c-28 119 -30 125
-56 128 -14 2 -29 -1 -32 -6z"/>
<path d="M5045 6678 c-3 -8 -4 -79 -3 -158 l3 -145 85 0 c81 0 85 1 88 23 3
21 0 22 -52 22 l-55 0 -3 133 -3 132 -28 3 c-16 2 -29 -2 -32 -10z"/>
<path d="M5333 6678 c-12 -16 -103 -278 -103 -295 0 -8 12 -13 29 -13 23 0 30
6 37 33 9 31 11 32 71 35 l61 3 12 -36 c10 -31 15 -35 47 -35 24 0 34 4 31 13
-3 6 -27 75 -53 152 -27 77 -54 143 -59 147 -17 12 -63 9 -73 -4z m53 -110 c9
-29 19 -59 22 -65 3 -9 -8 -13 -37 -13 -24 0 -41 5 -41 12 0 12 32 118 36 118
1 0 10 -24 20 -52z"/>
<path d="M5571 6676 c-8 -9 -11 -60 -9 -157 l3 -144 28 -3 27 -3 0 118 0 118
63 -115 c61 -112 63 -115 99 -118 48 -4 50 3 46 178 -3 122 -5 135 -22 138
-10 2 -22 0 -27 -5 -4 -4 -9 -54 -10 -111 -1 -56 -3 -102 -5 -102 -1 0 -24 42
-49 93 -26 50 -56 100 -67 110 -24 21 -61 22 -77 3z"/>
<path d="M4440 4550 c-188 -33 -333 -161 -389 -344 -21 -67 -21 -82 -21 -975
0 -801 2 -914 16 -962 50 -170 172 -292 343 -343 50 -15 344 -16 3296 -16
2938 0 3246 1 3296 16 170 50 292 172 343 343 14 49 16 157 16 962 0 895 0
908 -21 975 -49 159 -150 264 -315 326 l-59 23 -3230 1 c-1777 1 -3250 -2
-3275 -6z m6565 -160 c74 -36 138 -101 171 -173 l29 -62 0 -925 0 -925 -27
-57 c-34 -73 -103 -142 -176 -176 l-57 -27 -3260 0 -3260 0 -57 27 c-73 34
-142 103 -176 176 l-27 57 0 925 0 925 28 60 c42 90 114 156 206 190 30 11
603 13 3296 12 l3260 -2 50 -25z"/>
<path d="M4430 3920 l0 -190 190 0 190 0 0 190 0 190 -190 0 -190 0 0 -190z
m320 0 l0 -130 -135 0 -135 0 0 130 0 130 135 0 135 0 0 -130z"/>
<path d="M4530 3920 l0 -80 85 0 85 0 0 80 0 80 -85 0 -85 0 0 -80z"/>
<path d="M4860 4030 l0 -80 50 0 c47 0 50 -2 50 -25 0 -20 -5 -25 -25 -25 -21
0 -25 -5 -25 -30 0 -25 -4 -30 -25 -30 l-25 0 0 -135 0 -135 25 0 c20 0 25 -5
25 -25 0 -23 3 -25 50 -25 47 0 50 2 50 25 0 21 5 25 30 25 25 0 30 -4 30 -25
l0 -25 135 0 135 0 0 -30 c0 -25 -4 -30 -25 -30 -20 0 -25 -5 -25 -25 0 -20 5
-25 26 -25 24 0 25 -2 22 -52 -3 -46 -6 -53 -25 -56 -19 -3 -23 1 -23 22 0 22
-4 26 -30 26 -25 0 -30 -4 -30 -25 0 -20 -5 -25 -25 -25 -20 0 -25 -5 -25 -25
0 -20 5 -25 25 -25 20 0 25 -5 25 -25 0 -20 -5 -25 -25 -25 -24 0 -25 -3 -25
-55 0 -52 1 -55 25 -55 21 0 25 -5 25 -30 0 -27 3 -30 30 -30 25 0 30 -4 30
-25 0 -21 -5 -25 -30 -25 -25 0 -30 -4 -30 -25 0 -20 -5 -25 -25 -25 -23 0
-25 3 -25 50 0 49 -1 50 -30 50 -27 0 -30 3 -30 30 0 25 -4 30 -25 30 -21 0
-25 -5 -25 -30 0 -30 -1 -30 -55 -30 -54 0 -55 0 -55 30 0 25 4 30 25 30 20 0
25 5 25 26 0 21 -4 25 -22 22 -15 -2 -24 -11 -26 -25 -3 -20 -9 -23 -53 -23
-46 0 -49 2 -49 25 0 20 5 25 25 25 21 0 25 5 25 30 0 25 4 30 25 30 20 0 25
5 25 25 0 20 5 25 25 25 20 0 25 -5 25 -25 0 -21 5 -25 30 -25 27 0 30 -3 30
-30 0 -25 4 -30 26 -30 24 0 25 2 22 53 l-3 52 -52 3 -53 3 0 80 0 79 29 0
c25 0 30 -4 33 -27 3 -26 6 -28 53 -28 47 0 50 2 53 27 3 23 -1 27 -25 30 -20
2 -29 9 -31 26 -3 21 -7 22 -108 22 l-104 0 0 -55 c0 -52 -1 -55 -25 -55 -20
0 -25 -5 -25 -25 0 -20 5 -25 25 -25 20 0 25 5 25 25 0 20 5 25 25 25 23 0 25
-3 25 -50 0 -47 -2 -50 -25 -50 -20 0 -25 -5 -25 -25 0 -23 -3 -25 -49 -25
-44 0 -50 3 -53 23 -2 16 -11 23 -30 25 -22 3 -28 9 -28 27 0 18 6 24 28 27
19 2 28 9 30 25 2 14 11 23 25 25 21 3 22 8 22 83 0 75 -1 80 -22 83 -17 3
-23 10 -23 28 0 22 -3 24 -55 24 l-55 0 0 55 0 55 -85 0 -85 0 0 -30 c0 -25
-4 -30 -25 -30 -20 0 -25 -5 -25 -25 0 -20 -5 -25 -25 -25 -20 0 -25 -5 -25
-25 0 -20 5 -25 25 -25 21 0 25 -5 25 -30 0 -25 4 -30 25 -30 21 0 25 5 25 30
0 30 0 30 56 30 54 0 55 0 52 -27 -2 -20 -9 -29 -25 -31 -17 -3 -23 -10 -23
-28 0 -20 -5 -24 -30 -24 -27 0 -30 -3 -30 -30 0 -29 -1 -30 -50 -30 -47 0
-50 -2 -50 -25 0 -20 5 -25 25 -25 20 0 25 -5 25 -25 0 -20 5 -25 25 -25 23 0
25 3 25 49 0 47 2 50 28 53 21 2 28 9 30 31 3 21 9 27 27 27 18 0 24 -6 27
-27 3 -26 7 -28 56 -31 48 -3 52 -5 52 -28 0 -19 -5 -24 -25 -24 -34 0 -37
-47 -2 -52 14 -2 23 -11 25 -25 3 -19 -1 -23 -22 -23 -25 0 -26 -3 -26 -55 0
-54 0 -55 -30 -55 -27 0 -30 -3 -30 -30 0 -30 -1 -30 -55 -30 -52 0 -55 -1
-55 -25 0 -21 5 -25 30 -25 25 0 30 -4 30 -25 0 -20 5 -25 25 -25 20 0 25 5
25 25 0 21 5 25 30 25 30 0 30 0 30 56 l0 55 53 -3 c48 -3 52 -5 55 -30 3 -25
0 -28 -27 -28 -26 0 -31 -4 -31 -25 0 -24 3 -25 55 -25 l55 0 0 -55 c0 -52 1
-55 25 -55 24 0 25 -3 25 -55 0 -52 -1 -55 -25 -55 -20 0 -25 -5 -25 -25 0
-23 3 -25 50 -25 49 0 50 -1 50 -30 0 -25 -4 -30 -25 -30 -18 0 -25 -5 -25
-20 0 -15 -7 -20 -25 -20 -25 0 -25 -1 -25 -80 0 -79 0 -80 25 -80 20 0 25 5
25 25 0 20 5 25 25 25 20 0 25 -5 25 -25 0 -20 5 -25 25 -25 21 0 25 -5 25
-30 0 -29 -1 -30 -50 -30 -47 0 -50 -2 -50 -25 0 -23 3 -25 50 -25 47 0 50 2
50 25 0 21 5 25 30 25 25 0 30 -4 30 -25 0 -20 5 -25 25 -25 24 0 25 3 25 55
0 54 0 55 30 55 27 0 30 -3 30 -30 0 -25 4 -30 25 -30 21 0 25 5 25 30 0 27 3
30 30 30 25 0 30 4 30 25 0 20 5 25 25 25 20 0 25 -5 25 -24 0 -19 6 -25 28
-28 21 -2 28 -9 30 -30 3 -25 0 -28 -27 -28 -26 0 -31 -4 -31 -25 0 -21 5 -25
30 -25 25 0 30 4 30 25 0 23 3 25 51 25 49 0 50 1 47 28 -2 19 -9 28 -25 30
-17 3 -23 10 -23 28 0 22 3 24 55 24 52 0 55 1 55 25 0 23 3 25 49 25 47 0 50
2 53 28 2 21 8 27 28 27 15 0 26 -6 26 -15 1 -8 2 -20 3 -27 1 -9 32 -13 104
-15 97 -3 102 -4 105 -25 3 -21 9 -23 58 -23 51 0 54 -2 54 -24 0 -19 -6 -25
-27 -28 -26 -3 -28 -7 -31 -55 l-3 -53 30 0 c26 0 31 4 31 25 0 20 5 25 25 25
20 0 25 -5 25 -25 0 -21 5 -25 30 -25 25 0 30 4 30 25 0 21 -5 25 -30 25 -30
0 -30 1 -30 55 0 55 0 55 31 55 26 0 30 3 27 23 -3 20 -9 22 -86 25 l-83 3 3
27 c3 25 7 27 56 30 43 3 52 6 52 22 0 13 8 20 28 22 21 2 28 9 30 30 2 19 10
28 25 30 20 3 22 9 25 81 3 77 3 77 -23 77 -21 0 -25 5 -25 30 0 25 4 30 25
30 25 0 25 1 25 80 0 79 0 80 -25 80 -20 0 -25 5 -25 25 0 20 5 25 26 25 24 0
25 2 22 53 -3 45 -6 52 -25 55 -20 3 -23 9 -23 52 0 43 3 49 23 52 16 2 23 11
25 31 3 23 0 27 -22 27 -22 0 -26 -4 -26 -31 0 -27 -3 -30 -27 -27 -22 2 -29
9 -31 31 -3 26 -6 27 -58 27 l-54 0 0 -80 0 -80 -50 0 c-47 0 -50 -2 -50 -25
0 -21 -5 -25 -30 -25 -29 0 -30 1 -30 50 0 49 1 50 30 50 25 0 30 4 30 24 0
18 6 25 23 28 19 3 22 10 25 56 3 50 2 52 -22 52 -21 0 -26 -5 -26 -25 0 -21
-5 -25 -30 -25 -30 0 -30 1 -30 55 0 52 -1 55 -25 55 -21 0 -25 -5 -25 -30 0
-25 -4 -30 -24 -30 -19 0 -25 6 -28 28 -3 25 -7 27 -55 30 -48 3 -53 5 -53 27
0 22 5 24 53 27 47 3 52 5 50 26 -2 18 2 22 26 22 23 0 30 -5 33 -22 3 -20 10
-23 56 -26 48 -3 52 -5 52 -28 0 -19 5 -24 25 -24 20 0 25 5 25 25 0 20 -5 25
-25 25 -20 0 -25 5 -25 25 0 20 5 25 25 25 21 0 25 5 25 30 l0 30 -105 0 -105
0 0 25 c0 20 5 25 25 25 24 0 25 3 25 56 l0 55 -52 -3 c-46 -3 -53 -6 -56 -25
-2 -17 -10 -23 -27 -23 -17 0 -25 6 -27 23 -2 14 -11 23 -25 25 -21 3 -23 9
-23 58 0 51 1 54 25 54 20 0 25 -5 25 -25 0 -25 1 -25 80 -25 79 0 80 0 80 25
0 20 -5 25 -24 25 -18 0 -25 6 -28 23 -2 16 -11 23 -30 25 -22 3 -28 9 -28 28
0 19 -5 24 -25 24 -20 0 -25 -5 -25 -25 0 -20 -5 -25 -25 -25 -24 0 -25 3 -25
55 0 54 0 55 -29 55 -25 0 -30 -4 -33 -27 -2 -20 -9 -29 -25 -31 -20 -3 -23 1
-23 27 0 31 0 31 -55 31 -54 0 -55 0 -55 -30 0 -27 3 -30 30 -30 25 0 30 -4
30 -25 0 -21 -5 -25 -30 -25 -25 0 -30 -4 -30 -25 0 -20 -5 -25 -25 -25 -25 0
-25 1 -25 80 l0 80 -55 0 c-54 0 -55 0 -55 -30 0 -27 -3 -30 -30 -30 -27 0
-30 3 -30 30 0 25 -4 30 -25 30 -21 0 -25 -5 -25 -31 0 -27 -3 -30 -27 -27
-22 2 -29 9 -31 31 -3 27 -4 27 -78 27 l-74 0 0 -80z m260 -6 c0 -21 -4 -25
-22 -22 -15 2 -24 11 -26 26 -3 18 1 22 22 22 21 0 26 -5 26 -26z m108 4 c-2
-15 -10 -23 -23 -23 -13 0 -21 8 -23 23 -3 18 1 22 23 22 22 0 26 -4 23 -22z
m222 -53 c0 -20 -5 -25 -25 -25 -20 0 -25 5 -25 25 0 20 5 25 25 25 20 0 25
-5 25 -25z m110 0 c0 -21 -5 -25 -30 -25 -25 0 -30 4 -30 25 0 21 5 25 30 25
25 0 30 -4 30 -25z m100 0 c0 -20 -5 -25 -25 -25 -20 0 -25 5 -25 25 0 20 5
25 25 25 20 0 25 -5 25 -25z m-432 -52 c2 -15 11 -23 30 -25 21 -2 28 -9 30
-30 3 -27 6 -28 58 -28 54 0 54 0 54 31 0 30 1 30 48 27 43 -3 47 -5 50 -30 3
-24 8 -28 33 -28 24 0 29 -4 29 -25 0 -20 5 -25 25 -25 21 0 25 -5 25 -30 0
-25 -4 -30 -25 -30 -34 0 -37 -47 -2 -52 16 -2 23 -11 25 -30 3 -24 0 -28 -22
-28 -22 0 -26 4 -26 30 l0 30 -110 0 -110 0 0 -55 c0 -54 0 -55 30 -55 25 0
30 4 30 25 0 23 3 25 50 25 l50 0 0 -105 0 -105 55 0 c52 0 55 1 55 25 0 20 5
25 25 25 20 0 25 -5 25 -25 0 -20 -5 -25 -24 -25 -23 0 -25 -4 -28 -52 -3 -46
-6 -53 -25 -56 -19 -3 -23 1 -23 22 0 25 -3 26 -55 26 -52 0 -55 -1 -55 -25 0
-20 5 -25 25 -25 20 0 25 -5 25 -24 0 -23 4 -25 53 -28 45 -3 52 -6 55 -25 3
-19 -1 -23 -22 -23 -22 0 -26 -5 -26 -29 0 -23 5 -30 23 -33 14 -2 23 -11 25
-25 3 -19 -1 -23 -22 -23 -21 0 -26 5 -26 25 0 21 -5 25 -30 25 -30 0 -30 1
-30 55 0 52 -1 55 -25 55 -20 0 -25 -5 -25 -25 0 -24 -3 -25 -55 -25 -54 0
-55 0 -55 -29 0 -29 2 -30 53 -33 45 -3 52 -6 55 -25 3 -17 10 -23 28 -23 20
0 24 -5 24 -30 0 -25 -4 -30 -25 -30 -20 0 -25 -5 -25 -25 0 -24 3 -25 55 -25
52 0 55 1 55 25 0 23 3 25 49 25 44 0 50 -3 53 -22 2 -17 11 -24 31 -26 23 -3
27 0 27 22 0 21 5 26 24 26 19 0 25 6 28 28 2 19 9 28 26 30 19 3 22 -1 22
-27 0 -26 -4 -31 -25 -31 -20 0 -25 -5 -25 -25 l0 -25 135 0 135 0 0 25 c0 20
5 25 25 25 21 0 25 5 25 30 0 27 3 30 30 30 27 0 30 -3 30 -30 0 -27 -3 -30
-30 -30 -25 0 -30 -4 -30 -25 0 -21 5 -25 30 -25 25 0 30 -4 30 -25 0 -21 -5
-25 -30 -25 -27 0 -30 -3 -30 -30 0 -27 3 -30 30 -30 25 0 30 -4 30 -25 0 -21
-5 -25 -30 -25 -27 0 -30 -3 -30 -30 0 -27 3 -30 30 -30 25 0 30 -4 30 -25 0
-24 -3 -25 -54 -25 -52 0 -55 -1 -58 -27 -2 -22 -8 -28 -28 -28 -20 0 -26 6
-28 28 -3 24 0 27 27 27 26 0 31 4 31 25 0 21 -5 25 -30 25 -27 0 -30 3 -30
30 0 30 1 30 55 30 52 0 55 1 55 25 0 20 -5 25 -25 25 -21 0 -25 5 -25 30 0
30 -1 30 -55 30 -54 0 -55 0 -55 -30 0 -25 -4 -30 -25 -30 -20 0 -25 -5 -25
-26 0 -24 -2 -25 -52 -22 -47 3 -53 6 -56 26 -3 18 -9 23 -30 20 -25 -3 -26
-5 -23 -60 4 -89 -2 -98 -60 -98 -48 0 -49 -1 -49 -30 0 -25 4 -30 25 -30 18
0 25 -5 25 -20 0 -18 -7 -20 -80 -20 l-80 0 0 -30 0 -30 -80 0 -80 0 0 80 0
80 55 0 c55 0 55 0 55 -31 l0 -30 53 3 52 3 3 83 3 82 49 0 c47 0 50 2 50 25
0 25 -1 25 -80 25 l-80 0 0 30 c0 25 -4 30 -25 30 -24 0 -25 -3 -25 -55 0 -52
-1 -55 -25 -55 -24 0 -25 3 -25 55 0 54 0 55 -30 55 l-30 0 0 -85 c0 -84 0
-85 -25 -85 -25 0 -25 1 -25 85 0 84 0 85 25 85 20 0 25 5 25 25 0 21 5 25 30
25 25 0 30 4 30 25 0 20 5 25 25 25 21 0 25 5 25 30 0 30 -1 30 -55 30 -52 0
-55 1 -55 25 0 20 -5 25 -25 25 -20 0 -25 -5 -25 -25 0 -21 -5 -25 -30 -25
-25 0 -30 4 -30 25 0 21 5 25 30 25 27 0 30 3 30 30 0 25 4 30 25 30 20 0 25
5 25 25 0 21 5 25 30 25 29 0 30 1 30 50 0 47 2 50 25 50 21 0 25 5 25 30 0
30 -1 30 -55 30 -52 0 -55 2 -55 24 0 19 6 25 28 28 21 2 28 9 30 31 3 24 0
27 -27 27 -26 0 -31 4 -31 25 0 25 -1 25 -80 25 -79 0 -80 0 -80 25 0 21 -5
25 -30 25 -25 0 -30 -4 -30 -25 0 -20 -5 -25 -25 -25 -24 0 -25 3 -25 55 l0
55 80 0 80 0 0 80 0 80 -54 0 c-52 0 -55 1 -58 28 -3 25 -6 27 -53 27 -47 0
-50 -2 -53 -27 -3 -25 0 -28 27 -28 31 0 31 0 31 -55 0 -54 0 -55 -30 -55 -25
0 -30 -4 -30 -25 0 -20 -5 -25 -25 -25 -20 0 -25 5 -25 25 0 20 -5 25 -25 25
-21 0 -25 5 -25 30 0 25 4 30 25 30 21 0 25 -5 25 -30 0 -25 4 -30 25 -30 24
0 25 3 25 55 0 52 -1 55 -25 55 -21 0 -25 5 -25 30 0 25 4 30 25 30 18 0 25 5
25 18 0 10 3 22 7 26 4 4 52 5 107 4 95 -3 101 -4 104 -25z m-48 -163 c0 -27
-3 -30 -30 -30 -25 0 -30 4 -30 23 0 30 7 37 37 37 19 0 23 -5 23 -30z m538
-2 c3 -24 0 -28 -23 -28 -27 0 -41 20 -31 46 10 27 51 13 54 -18z m-1078 -163
c0 -21 5 -25 30 -25 25 0 30 -4 30 -25 0 -24 3 -25 56 -25 54 0 55 0 52 -27
-3 -26 -7 -28 -55 -31 l-53 -3 0 30 c0 28 -3 31 -30 31 -25 0 -30 4 -30 25 0
20 -5 25 -25 25 -20 0 -25 5 -25 25 0 20 5 25 25 25 20 0 25 -5 25 -25z m370
0 c0 -23 -3 -25 -50 -25 -47 0 -50 2 -50 25 0 23 3 25 50 25 47 0 50 -2 50
-25z m-200 -215 c0 -27 -3 -30 -30 -30 -27 0 -30 3 -30 30 0 27 3 30 30 30 27
0 30 -3 30 -30z m1010 -24 l0 -55 -52 -3 c-48 -3 -53 -5 -50 -25 3 -20 -1 -23
-27 -23 -30 0 -31 1 -31 49 0 47 2 50 28 53 21 2 28 9 30 31 3 25 6 27 53 27
l49 0 0 -54z m-530 -81 c0 -21 -5 -25 -30 -25 -25 0 -30 4 -30 25 0 21 5 25
30 25 25 0 30 -4 30 -25z m798 -52 c3 -18 10 -23 33 -23 26 0 29 -3 29 -30 0
-30 -1 -30 -55 -30 -52 0 -55 -1 -55 -25 0 -24 -3 -25 -55 -25 -54 0 -55 0
-55 -30 0 -25 -4 -30 -25 -30 -21 0 -25 5 -25 30 0 25 4 30 25 30 20 0 25 5
25 25 0 20 -5 25 -25 25 -21 0 -25 5 -25 30 0 29 1 30 50 30 47 0 50 2 50 26
0 24 2 25 53 22 45 -3 52 -6 55 -25z m-1278 -53 c0 -27 -3 -30 -30 -30 -27 0
-30 3 -30 30 0 27 3 30 30 30 27 0 30 -3 30 -30z m1010 0 c0 -25 -4 -30 -25
-30 -20 0 -25 5 -25 23 0 28 7 37 32 37 13 0 18 -8 18 -30z m-105 -55 c0 -22
-31 -33 -47 -17 -17 17 -1 44 24 40 15 -2 23 -10 23 -23z m-805 -110 c0 -20
-5 -25 -25 -25 -20 0 -25 5 -25 25 0 20 5 25 25 25 20 0 25 -5 25 -25z m210
-25 c0 -49 1 -50 30 -50 27 0 30 -3 30 -30 0 -25 4 -30 25 -30 20 0 25 -5 25
-25 0 -20 -5 -25 -25 -25 -21 0 -25 -5 -25 -30 0 -25 4 -30 25 -30 20 0 25 -5
25 -25 0 -21 5 -25 31 -25 27 0 30 -3 27 -27 -2 -22 -9 -29 -30 -31 -20 -2
-28 -9 -28 -23 0 -14 -7 -19 -25 -19 -18 0 -25 5 -25 20 0 15 7 20 25 20 21 0
25 5 25 29 0 23 -5 30 -22 33 -15 2 -24 11 -26 25 -2 15 -11 23 -30 25 -21 2
-28 9 -30 30 -3 25 -7 27 -55 30 -45 3 -52 6 -55 26 -3 19 -9 22 -53 22 -48 0
-49 1 -49 30 l0 30 80 0 80 0 0 50 c0 47 2 50 25 50 23 0 25 -3 25 -50z m810
-295 l0 -75 -80 0 -80 0 0 75 0 75 80 0 80 0 0 -75z m-920 -55 c0 -15 -7 -20
-25 -20 -21 0 -25 -5 -25 -30 0 -25 4 -30 24 -30 19 0 25 6 28 28 2 21 9 28
31 30 19 2 27 9 27 23 0 14 7 19 25 19 23 0 25 -3 25 -50 l0 -49 83 -3 c76 -3
82 -5 85 -25 3 -20 -1 -23 -27 -23 -26 0 -31 -4 -31 -25 0 -20 -5 -25 -25 -25
-20 0 -25 5 -25 26 0 22 -4 25 -27 22 -20 -2 -29 -9 -31 -25 -3 -21 -9 -23
-58 -23 -51 0 -54 1 -54 25 0 20 -5 25 -25 25 -20 0 -25 5 -25 25 0 20 -5 25
-25 25 -21 0 -25 5 -25 30 0 25 4 30 25 30 18 0 25 5 25 20 0 15 7 20 25 20
18 0 25 -5 25 -20z"/>
<path d="M5400 3785 c0 -52 1 -55 25 -55 21 0 25 5 25 30 0 25 4 30 25 30 21
0 25 -5 25 -30 0 -27 3 -30 30 -30 27 0 30 3 30 30 0 27 -3 30 -30 30 -25 0
-30 4 -30 25 0 23 -3 25 -50 25 l-50 0 0 -55z"/>
<path d="M5290 3760 c0 -25 4 -30 25 -30 21 0 25 5 25 30 0 25 -4 30 -25 30
-21 0 -25 -5 -25 -30z"/>
<path d="M5230 3650 c0 -27 3 -30 30 -30 27 0 30 3 30 30 0 27 -3 30 -30 30
-27 0 -30 -3 -30 -30z"/>
<path d="M5400 3545 c0 -20 5 -25 25 -25 20 0 25 5 25 25 0 20 -5 25 -25 25
-20 0 -25 -5 -25 -25z"/>
<path d="M5400 2955 c0 -20 5 -25 25 -25 20 0 25 5 25 25 0 20 -5 25 -25 25
-20 0 -25 -5 -25 -25z"/>
<path d="M5560 2956 c0 -21 5 -26 26 -26 21 0 25 4 22 23 -2 14 -11 23 -25 25
-19 3 -23 -1 -23 -22z"/>
<path d="M5718 2974 c-14 -13 6 -44 28 -44 19 0 24 5 24 25 0 20 -5 25 -23 25
-13 0 -26 -3 -29 -6z"/>
<path d="M6040 2955 c0 -20 5 -25 25 -25 20 0 25 5 25 25 0 20 -5 25 -25 25
-20 0 -25 -5 -25 -25z"/>
<path d="M5070 2900 c0 -25 4 -30 25 -30 21 0 25 5 25 30 0 25 -4 30 -25 30
-21 0 -25 -5 -25 -30z"/>
<path d="M5822 2683 c2 -22 9 -29 31 -31 24 -3 27 0 27 27 0 28 -3 31 -31 31
-27 0 -30 -3 -27 -27z"/>
<path d="M5664 4095 c-13 -32 4 -45 56 -45 49 0 50 1 50 30 0 29 -1 30 -50 30
-36 0 -52 -4 -56 -15z"/>
<path d="M5820 3920 l0 -190 190 0 190 0 0 190 0 190 -190 0 -190 0 0 -190z
m330 0 l0 -130 -135 0 -135 0 0 130 0 130 135 0 135 0 0 -130z"/>
<path d="M5930 3920 l0 -80 80 0 80 0 0 80 0 80 -80 0 -80 0 0 -80z"/>
<path d="M6695 3911 c-11 -5 -53 -14 -92 -21 -60 -11 -73 -17 -73 -32 0 -12 7
-18 23 -18 53 -1 52 5 52 -331 1 -204 5 -314 11 -316 6 -2 18 5 28 16 17 19
18 19 63 -1 72 -32 134 -22 219 34 109 73 141 119 151 214 11 105 -50 196
-142 210 -64 9 -102 -1 -151 -41 -23 -19 -45 -35 -48 -35 -3 0 -6 74 -6 165 0
91 -3 165 -7 164 -5 0 -17 -4 -28 -8z m216 -369 c32 -36 45 -99 34 -169 -9
-65 -57 -113 -112 -113 -36 0 -78 20 -95 44 -4 6 -8 61 -8 123 l0 111 33 21
c47 31 112 24 148 -17z"/>
<path d="M8047 3904 c-20 -7 -64 -18 -97 -25 -48 -9 -60 -15 -60 -30 0 -14 7
-19 28 -19 44 0 52 -16 52 -103 0 -71 -2 -78 -17 -72 -10 4 -39 10 -65 12 -58
7 -131 -25 -201 -87 -53 -47 -73 -108 -64 -201 9 -106 73 -176 168 -186 54 -5
55 -5 118 47 l63 53 -7 -46 -7 -47 101 0 c94 0 101 1 101 20 0 14 -7 20 -24
20 -48 0 -49 7 -44 350 3 176 3 322 -1 324 -3 2 -23 -2 -44 -10z m-106 -330
c28 -27 29 -31 29 -122 0 -104 -7 -125 -50 -147 -43 -22 -84 -19 -119 11 -69
58 -69 228 0 278 35 26 103 16 140 -20z"/>
<path d="M8443 3904 c-17 -9 -64 -46 -104 -83 l-72 -67 -5 -63 c-4 -59 -6 -63
-38 -79 -48 -22 -44 -42 7 -42 l41 0 -3 -155 c-4 -166 -7 -175 -56 -175 -16 0
-23 -6 -23 -20 0 -19 7 -20 150 -20 140 0 150 1 150 19 0 14 -10 20 -41 24
-22 3 -44 8 -47 12 -4 4 -8 77 -10 162 l-3 155 64 -4 65 -4 6 29 c3 16 6 33 6
38 0 4 -31 5 -70 2 l-70 -6 0 74 c0 117 35 145 121 97 21 -12 40 -20 43 -17 2
2 6 32 10 65 6 58 5 62 -16 68 -37 10 -71 7 -105 -10z"/>
<path d="M9260 3899 c-36 -10 -75 -18 -87 -18 -33 -1 -32 -41 0 -41 13 0 28
-5 35 -12 16 -16 17 -540 2 -569 -6 -11 -21 -19 -35 -19 -18 0 -25 -5 -25 -20
0 -19 7 -20 130 -20 123 0 130 1 130 20 0 13 -7 20 -19 20 -50 0 -51 4 -51
147 l0 135 29 29 c36 35 86 39 118 9 28 -26 38 -103 29 -247 l-6 -113 100 0
c93 0 100 1 100 20 0 14 -7 20 -23 20 -43 0 -47 15 -47 174 0 124 -3 157 -18
186 -20 41 -71 70 -125 70 -44 0 -68 -11 -117 -53 l-35 -31 -3 167 c-1 92 -6
166 -10 166 -4 -1 -36 -10 -72 -20z"/>
<path d="M10210 3899 c-36 -10 -75 -18 -87 -18 -35 -1 -31 -39 5 -43 24 -3 28
-8 34 -53 10 -79 9 -491 -2 -519 -7 -19 -17 -26 -35 -26 -18 0 -25 -5 -25 -20
0 -19 7 -20 130 -20 123 0 130 1 130 20 0 15 -7 20 -25 20 -34 0 -45 27 -45
115 l0 75 67 -70 c36 -39 82 -91 101 -115 l35 -45 88 0 c79 0 89 2 89 18 0 11
-13 23 -35 31 -32 11 -193 172 -219 218 -17 32 143 153 202 153 15 0 22 6 22
20 0 18 -7 20 -66 20 l-66 0 -106 -107 -107 -106 -3 236 c-1 130 -6 236 -10
236 -4 -1 -36 -10 -72 -20z"/>
<path d="M9845 3875 c-14 -13 -25 -36 -25 -50 0 -33 42 -75 75 -75 33 0 75 42
75 75 0 33 -42 75 -75 75 -14 0 -37 -11 -50 -25z"/>
<path d="M4750 3650 c0 -27 3 -30 30 -30 27 0 30 3 30 30 0 27 -3 30 -30 30
-27 0 -30 -3 -30 -30z"/>
<path d="M6040 3650 c0 -30 1 -30 55 -30 52 0 55 -1 55 -25 0 -25 -1 -25 -85
-25 l-85 0 0 -55 0 -56 83 3 82 3 3 53 c3 48 5 52 28 52 23 0 24 3 24 55 l0
55 -80 0 -80 0 0 -30z"/>
<path d="M7295 3635 c-85 -52 -121 -90 -134 -141 -45 -176 44 -304 211 -304
57 0 108 17 131 42 28 33 21 38 -45 32 -55 -5 -67 -3 -97 18 -59 40 -76 80
-76 181 0 86 1 90 29 114 25 21 37 24 70 20 46 -6 76 -36 76 -73 0 -17 6 -24
19 -24 15 0 20 12 29 72 6 40 7 77 3 81 -5 5 -42 11 -82 13 -72 5 -76 4 -134
-31z"/>
<path d="M8735 3655 c-71 -28 -115 -87 -115 -157 0 -43 31 -93 70 -113 l30
-16 -40 -38 c-29 -28 -40 -46 -40 -68 0 -31 26 -63 50 -63 8 0 -7 -13 -32 -29
-49 -31 -58 -46 -58 -96 0 -140 300 -186 432 -67 70 63 97 156 64 221 -22 42
-54 51 -192 51 -123 0 -164 8 -164 33 1 30 21 41 88 48 133 14 195 69 196 171
l1 58 41 0 c33 0 45 5 58 25 9 13 16 26 16 29 0 2 -42 7 -92 10 -250 16 -273
16 -313 1z m128 -46 c46 -21 62 -101 32 -158 -16 -32 -33 -41 -75 -41 -49 0
-80 47 -80 121 0 70 59 107 123 78z m101 -431 c35 -15 45 -68 22 -115 -46 -96
-256 -97 -290 -1 -12 35 0 75 31 104 24 22 34 24 119 24 51 0 104 -5 118 -12z"/>
<path d="M9858 3647 c-80 -16 -98 -23 -98 -38 0 -13 9 -19 32 -21 27 -3 33 -8
41 -38 13 -50 2 -477 -13 -518 -13 -35 -36 -52 -70 -52 -16 0 -20 -4 -16 -16
3 -9 6 -18 6 -20 0 -13 71 0 102 19 79 48 108 116 114 267 9 243 12 440 5 439
-3 -1 -50 -11 -103 -22z"/>
<path d="M4590 3250 l0 -50 -55 0 c-54 0 -55 0 -55 -30 0 -25 -4 -30 -25 -30
-24 0 -25 -3 -25 -55 0 -52 1 -55 25 -55 21 0 25 5 25 30 0 30 1 30 55 30 52
0 55 1 55 25 0 20 5 25 25 25 25 0 25 1 25 80 0 79 0 80 -25 80 -23 0 -25 -3
-25 -50z"/>
<path d="M4430 2870 l0 -110 25 0 25 0 0 110 0 110 -25 0 -25 0 0 -110z"/>
<path d="M4700 2899 l0 -30 53 3 c48 3 52 5 55 31 3 27 2 27 -52 27 -56 0 -56
0 -56 -31z"/>
<path d="M4530 2815 c0 -54 0 -55 30 -55 27 0 30 3 30 30 0 25 4 30 25 30 20
0 25 5 25 25 0 24 -3 25 -55 25 l-55 0 0 -55z"/>
<path d="M8470 2826 c-27 -33 18 -72 48 -42 13 13 14 20 6 34 -15 23 -38 26
-54 8z"/>
<path d="M8618 2828 c-40 -11 -48 -22 -23 -32 12 -4 15 -28 15 -126 0 -98 -3
-122 -15 -126 -33 -13 -12 -24 45 -24 33 0 60 4 60 10 0 6 -7 10 -15 10 -13 0
-15 23 -15 150 0 83 -3 150 -7 149 -5 -1 -25 -6 -45 -11z"/>
<path d="M6590 2818 c-49 -26 -67 -109 -31 -142 10 -10 43 -24 72 -31 72 -19
90 -54 49 -95 -37 -37 -110 -14 -110 36 0 13 -4 24 -9 24 -12 0 -21 -73 -10
-84 5 -5 35 -11 66 -13 88 -6 143 37 143 112 0 38 -31 65 -89 78 -60 13 -77
31 -67 70 13 52 106 45 106 -8 0 -38 17 -30 23 12 4 20 5 39 2 41 -11 12 -123
12 -145 0z"/>
<path d="M6860 2818 c-49 -26 -67 -109 -31 -142 10 -10 43 -24 72 -31 72 -19
90 -54 49 -95 -37 -37 -110 -14 -110 36 0 13 -4 24 -9 24 -12 0 -21 -73 -10
-84 5 -5 35 -11 66 -13 88 -6 143 37 143 112 0 38 -31 65 -89 78 -60 13 -77
31 -67 70 13 52 106 45 106 -8 0 -38 17 -30 23 12 4 20 5 39 2 41 -11 12 -123
12 -145 0z"/>
<path d="M4700 2789 l0 -30 53 3 c48 3 52 5 55 31 3 27 2 27 -52 27 -56 0 -56
0 -56 -31z"/>
<path d="M7070 2811 c0 -5 9 -11 20 -14 19 -5 20 -14 20 -127 0 -113 -1 -122
-20 -127 -43 -11 -17 -23 50 -23 67 0 93 12 50 23 -19 5 -20 14 -20 127 0 113
1 122 20 127 43 11 17 23 -50 23 -38 0 -70 -4 -70 -9z"/>
<path d="M7240 2811 c0 -5 9 -11 20 -14 19 -5 20 -14 20 -125 0 -70 -4 -123
-10 -127 -28 -17 -1 -25 83 -25 157 1 222 49 222 166 0 70 -16 97 -72 120 -36
16 -263 20 -263 5z m228 -31 c53 -32 66 -94 36 -169 -18 -46 -61 -71 -123 -71
l-41 0 0 130 0 130 48 0 c29 0 59 -8 80 -20z"/>
<path d="M9213 2792 c-35 -14 -63 -31 -63 -39 0 -16 8 -16 40 2 14 8 28 14 33
15 8 0 10 -191 1 -214 -3 -9 -15 -16 -25 -16 -10 0 -19 -4 -19 -10 0 -6 33
-10 80 -10 44 0 80 4 80 9 0 5 -10 11 -22 13 -22 3 -23 6 -26 141 -1 75 -6
137 -10 136 -4 0 -35 -12 -69 -27z"/>
<path d="M9423 2804 c-24 -21 -43 -94 -24 -94 6 0 13 11 17 25 11 45 79 45 90
-1 9 -37 -11 -75 -72 -135 -29 -29 -54 -59 -54 -66 0 -10 25 -13 100 -13 l100
0 0 25 c0 24 -2 25 -67 25 l-67 0 51 53 c77 79 90 119 54 166 -25 32 -97 41
-128 15z"/>
<path d="M9662 2803 c-20 -18 -39 -73 -24 -73 4 0 16 9 25 21 10 11 27 19 39
17 52 -8 49 -78 -4 -99 -32 -12 -32 -12 -8 -17 56 -9 80 -71 42 -105 -28 -26
-59 -21 -84 13 -28 39 -41 38 -33 -2 9 -40 20 -48 65 -48 45 0 101 28 119 61
18 33 8 76 -23 90 l-23 11 23 24 c31 30 30 68 -1 99 -29 30 -83 33 -113 8z"/>
<path d="M9950 2813 c-13 -3 -30 -12 -37 -21 -19 -26 -93 -169 -93 -181 0 -7
22 -11 56 -11 54 0 55 0 52 -27 -2 -20 -9 -29 -25 -31 -13 -2 -23 -8 -23 -13
0 -5 34 -9 75 -9 71 0 99 11 55 23 -14 3 -20 14 -20 31 0 19 5 26 20 26 13 0
20 7 20 20 0 14 -7 20 -21 20 -20 0 -21 3 -14 90 8 97 10 93 -45 83z m-20
-108 l0 -65 -35 0 c-19 0 -35 3 -35 6 0 8 62 124 66 124 2 0 4 -29 4 -65z"/>
<path d="M10070 2731 l0 -89 30 11 c37 14 61 2 75 -37 23 -66 -52 -113 -94
-60 -25 32 -31 29 -24 -9 10 -54 102 -49 152 9 40 45 42 94 5 131 -22 22 -32
25 -70 20 l-44 -5 0 34 0 34 65 0 c63 0 65 1 65 25 0 25 -1 25 -80 25 l-80 0
0 -89z"/>
<path d="M10370 2798 c-101 -51 -125 -229 -39 -274 52 -26 104 -12 132 36 51
86 -25 188 -101 134 -26 -18 -28 -7 -8 40 16 39 51 66 84 66 13 0 20 4 17 10
-10 16 -37 12 -85 -12z m34 -144 c18 -18 21 -76 6 -105 -15 -28 -49 -24 -60 7
-29 76 8 144 54 98z"/>
<path d="M7630 2716 c-27 -33 18 -72 48 -42 13 13 14 20 6 34 -15 23 -38 26
-54 8z"/>
<path d="M7866 2709 c-17 -14 -26 -30 -26 -49 0 -33 7 -39 70 -60 48 -16 60
-43 29 -63 -23 -14 -70 0 -76 23 -8 30 -23 24 -23 -9 0 -31 14 -41 61 -41 101
0 138 105 46 131 -57 16 -74 33 -57 53 18 22 57 20 72 -4 17 -27 28 -25 28 4
0 41 -78 51 -124 15z"/>
<path d="M8068 2718 c-40 -11 -48 -22 -23 -32 11 -4 15 -22 15 -76 0 -56 -3
-70 -15 -70 -8 0 -15 -4 -15 -10 0 -6 27 -10 60 -10 33 0 60 4 60 10 0 6 -7
10 -15 10 -12 0 -15 14 -15 64 0 71 17 99 48 79 24 -14 30 -131 7 -139 -33
-13 -12 -24 45 -24 57 0 78 11 45 24 -22 8 -21 119 1 137 11 9 20 10 32 2 14
-8 17 -26 16 -87 l-1 -76 48 0 c48 0 65 12 34 24 -11 4 -15 22 -15 73 0 81
-17 113 -59 113 -15 0 -36 -9 -46 -20 l-18 -20 -22 20 c-25 24 -67 26 -85 5
-7 -8 -16 -15 -21 -15 -5 0 -9 7 -9 15 0 17 0 17 -52 3z"/>
<path d="M8468 2718 c-40 -11 -48 -22 -23 -32 11 -4 15 -22 15 -71 0 -49 -4
-67 -15 -71 -33 -13 -12 -24 45 -24 57 0 78 11 45 24 -12 4 -15 25 -15 96 0
49 -3 90 -7 89 -5 -1 -25 -6 -45 -11z"/>
<path d="M8782 2713 c-38 -19 -52 -46 -52 -104 0 -56 42 -99 97 -99 22 0 48 7
59 15 18 15 18 15 -8 9 -37 -8 -63 2 -76 32 -19 40 -15 44 36 44 65 0 76 9 68
54 -12 61 -60 81 -124 49z m56 -15 c7 -7 12 -25 12 -40 0 -24 -4 -28 -30 -28
-24 0 -30 4 -30 21 0 23 17 59 28 59 5 0 13 -5 20 -12z"/>
<path d="M4430 2525 l0 -185 190 0 190 0 0 185 0 185 -190 0 -190 0 0 -185z
m320 -5 l0 -130 -135 0 -135 0 0 130 0 130 135 0 135 0 0 -130z"/>
<path d="M4537 2604 c-4 -4 -7 -40 -7 -81 l0 -73 85 0 86 0 -3 78 -3 77 -75 3
c-42 1 -79 0 -83 -4z"/>
<path d="M7630 2566 c-27 -33 18 -72 48 -42 13 13 14 20 6 34 -15 23 -38 26
-54 8z"/>
<path d="M5610 2476 c0 -21 -5 -26 -25 -26 -21 0 -25 -5 -25 -30 0 -25 4 -30
25 -30 21 0 25 5 25 30 0 30 0 30 56 30 52 0 55 1 52 23 -3 19 -10 22 -55 25
-51 3 -53 2 -53 -22z"/>
<path d="M5777 2493 c-4 -3 -7 -28 -7 -54 l0 -48 -52 -3 c-45 -3 -53 -6 -53
-23 0 -19 8 -20 108 -23 l107 -3 0 26 c0 20 5 25 25 25 21 0 25 5 25 30 0 25
-4 30 -25 30 -20 0 -25 5 -25 25 0 23 -3 25 -48 25 -27 0 -52 -3 -55 -7z m103
-73 c0 -27 -3 -30 -30 -30 -25 0 -30 4 -30 23 0 30 7 37 37 37 19 0 23 -5 23
-30z"/>
<path d="M8930 2470 c0 -6 43 -10 110 -10 67 0 110 4 110 10 0 6 -43 10 -110
10 -67 0 -110 -4 -110 -10z"/>
</g>
</svg>
