<?xml version="1.0" standalone="no"?>
<!DOCTYPE svg PUBLIC "-//W3C//DTD SVG 20010904//EN"
 "http://www.w3.org/TR/2001/REC-SVG-20010904/DTD/svg10.dtd">
<svg version="1.0" xmlns="http://www.w3.org/2000/svg"
 width="1417.000000pt" height="1417.000000pt" viewBox="0 0 1417.000000 1417.000000"
 preserveAspectRatio="xMidYMid meet">
<metadata>
Created by potrace 1.13, written by Peter Selinger 2001-2015
</metadata>
<g transform="translate(0.000000,1417.000000) scale(0.100000,-0.100000)"
fill="#000000" stroke="none">
<path d="M2210 14093 c-125 -12 -284 -40 -400 -70 -425 -110 -783 -315 -1095
-628 -367 -366 -587 -801 -677 -1335 l-23 -135 0 -4840 0 -4840 23 -129 c97
-550 311 -974 678 -1340 366 -367 790 -581 1340 -678 l129 -23 4870 0 4870 0
135 23 c534 90 969 310 1335 677 371 370 602 828 682 1350 17 115 18 317 18
4960 0 4658 -1 4845 -18 4960 -99 639 -421 1185 -928 1571 -309 234 -658 383
-1074 457 l-120 22 -4855 1 c-2670 0 -4871 -1 -4890 -3z m4550 -1413 c0 -19 7
-20 160 -20 153 0 160 -1 160 -20 0 -18 7 -20 85 -20 78 0 85 -2 85 -20 0 -18
7 -20 60 -20 53 0 60 -2 60 -20 0 -18 7 -20 85 -20 78 0 85 -2 85 -20 0 -17 7
-20 40 -20 33 0 40 -3 40 -20 0 -17 7 -20 40 -20 33 0 40 -3 40 -20 0 -18 7
-20 60 -20 57 0 60 -1 60 -25 0 -22 4 -25 40 -25 33 0 40 -3 40 -20 0 -15 7
-20 25 -20 18 0 25 -5 25 -20 0 -17 7 -20 40 -20 33 0 40 -3 40 -20 0 -17 7
-20 40 -20 33 0 40 -3 40 -20 0 -17 7 -20 40 -20 33 0 40 -3 40 -20 0 -13 7
-20 20 -20 13 0 20 -7 20 -20 0 -17 7 -20 40 -20 33 0 40 -3 40 -20 0 -15 7
-20 25 -20 18 0 25 -5 25 -20 0 -13 7 -20 20 -20 15 0 20 -7 20 -25 0 -22 4
-25 40 -25 33 0 40 -3 40 -20 0 -13 7 -20 20 -20 13 0 20 -7 20 -20 0 -13 7
-20 20 -20 13 0 20 -7 20 -20 0 -13 7 -20 20 -20 13 0 20 -7 20 -20 0 -13 7
-20 20 -20 13 0 20 -7 20 -20 0 -13 7 -20 20 -20 13 0 20 -7 20 -20 0 -15 7
-20 25 -20 18 0 25 -5 25 -20 0 -13 7 -20 20 -20 13 0 20 -7 20 -20 0 -13 7
-20 20 -20 15 0 20 -7 20 -25 0 -18 5 -25 20 -25 13 0 20 -7 20 -20 0 -13 7
-20 20 -20 13 0 20 -7 20 -20 0 -13 7 -20 20 -20 13 0 20 -7 20 -20 0 -13 7
-20 20 -20 17 0 20 -7 20 -40 0 -33 3 -40 20 -40 13 0 20 -7 20 -20 0 -13 7
-20 20 -20 13 0 20 -7 20 -20 0 -13 7 -20 20 -20 17 0 20 -7 20 -45 0 -41 2
-45 25 -45 18 0 25 -5 25 -20 0 -13 7 -20 20 -20 17 0 20 -7 20 -40 0 -33 3
-40 20 -40 17 0 20 -7 20 -40 0 -33 3 -40 20 -40 17 0 20 -7 20 -40 0 -33 3
-40 20 -40 17 0 20 -7 20 -45 0 -38 3 -45 20 -45 17 0 20 -7 20 -40 0 -33 3
-40 20 -40 17 0 20 -7 20 -40 0 -33 3 -40 20 -40 17 0 20 -7 20 -40 0 -33 3
-40 20 -40 17 0 20 -7 20 -40 0 -36 3 -40 25 -40 24 0 25 -2 25 -65 0 -58 2
-65 20 -65 18 0 20 -7 20 -60 0 -53 2 -60 20 -60 18 0 20 -7 20 -85 0 -78 2
-85 20 -85 18 0 20 -7 20 -80 0 -73 2 -80 20 -80 19 0 20 -7 20 -205 0 -198 1
-205 20 -205 19 0 20 -7 20 -165 0 -158 -1 -165 -20 -165 -19 0 -20 -7 -20
-165 0 -158 -1 -165 -20 -165 -19 0 -20 -7 -20 -100 0 -93 -1 -100 -20 -100
-18 0 -20 -7 -20 -65 0 -58 -2 -65 -20 -65 -18 0 -20 -7 -20 -60 0 -53 -2 -60
-20 -60 -17 0 -20 -7 -20 -40 0 -36 -2 -40 -25 -40 -23 0 -25 -4 -25 -45 0
-38 -3 -45 -20 -45 -17 0 -20 -7 -20 -40 0 -33 -3 -40 -20 -40 -17 0 -20 -7
-20 -40 0 -33 -3 -40 -20 -40 -17 0 -20 -7 -20 -40 0 -33 -3 -40 -20 -40 -17
0 -20 -7 -20 -40 0 -33 -3 -40 -20 -40 -15 0 -20 -7 -20 -25 0 -18 -5 -25 -20
-25 -17 0 -20 -7 -20 -40 0 -33 -3 -40 -20 -40 -13 0 -20 -7 -20 -20 0 -13 -7
-20 -20 -20 -13 0 -20 -7 -20 -20 0 -15 -7 -20 -25 -20 -18 0 -25 -5 -25 -20
0 -13 -7 -20 -20 -20 -13 0 -20 -7 -20 -20 0 -13 -7 -20 -20 -20 -17 0 -20 -7
-20 -40 0 -33 -3 -40 -20 -40 -15 0 -20 -7 -20 -25 0 -18 -5 -25 -20 -25 -13
0 -20 -7 -20 -20 0 -13 -7 -20 -20 -20 -13 0 -20 -7 -20 -20 0 -13 -7 -20 -20
-20 -13 0 -20 -7 -20 -20 0 -13 -7 -20 -20 -20 -13 0 -20 -7 -20 -20 0 -13 -7
-20 -20 -20 -13 0 -20 -7 -20 -20 0 -17 -7 -20 -45 -20 -38 0 -45 -3 -45 -20
0 -13 -7 -20 -20 -20 -13 0 -20 -7 -20 -20 0 -13 -7 -20 -20 -20 -15 0 -20 -7
-20 -25 0 -22 -4 -25 -40 -25 -33 0 -40 -3 -40 -20 0 -13 -7 -20 -20 -20 -13
0 -20 -7 -20 -20 0 -17 -7 -20 -40 -20 -33 0 -40 -3 -40 -20 0 -17 -7 -20 -40
-20 -33 0 -40 -3 -40 -20 0 -15 -7 -20 -25 -20 -18 0 -25 -5 -25 -20 0 -17 -7
-20 -40 -20 -33 0 -40 -3 -40 -20 0 -18 -7 -20 -60 -20 -53 0 -60 -2 -60 -20
0 -17 -7 -20 -40 -20 -33 0 -40 -3 -40 -20 0 -18 -7 -20 -65 -20 -63 0 -65 -1
-65 -25 0 -24 -3 -25 -60 -25 -53 0 -60 -2 -60 -20 0 -19 -7 -20 -100 -20 -93
0 -100 -1 -100 -20 0 -19 -7 -20 -105 -20 -98 0 -105 -1 -105 -20 0 -19 -7
-20 -245 -20 -238 0 -245 1 -245 20 0 19 -7 20 -165 20 -158 0 -165 1 -165 20
0 18 -7 20 -60 20 -53 0 -60 2 -60 20 0 18 -7 20 -65 20 -63 0 -65 1 -65 25 0
24 -3 25 -60 25 -53 0 -60 2 -60 20 0 17 -7 20 -40 20 -33 0 -40 3 -40 20 0
17 -7 20 -40 20 -33 0 -40 3 -40 20 0 17 -7 20 -45 20 -38 0 -45 3 -45 20 0
13 -7 20 -20 20 -13 0 -20 7 -20 20 0 17 -7 20 -40 20 -33 0 -40 3 -40 20 0
13 -7 20 -20 20 -13 0 -20 7 -20 20 0 13 -7 20 -20 20 -13 0 -20 7 -20 20 0
17 -7 20 -40 20 -36 0 -40 3 -40 25 0 18 -5 25 -20 25 -13 0 -20 7 -20 20 0
15 -7 20 -25 20 -18 0 -25 5 -25 20 0 13 -7 20 -20 20 -13 0 -20 7 -20 20 0
13 -7 20 -20 20 -13 0 -20 7 -20 20 0 13 -7 20 -20 20 -13 0 -20 7 -20 20 0
13 -7 20 -20 20 -13 0 -20 7 -20 20 0 13 -7 20 -20 20 -17 0 -20 7 -20 45 0
38 -3 45 -20 45 -13 0 -20 7 -20 20 0 13 -7 20 -20 20 -13 0 -20 7 -20 20 0
13 -7 20 -20 20 -17 0 -20 7 -20 40 0 36 -2 40 -25 40 -18 0 -25 5 -25 20 0
13 -7 20 -20 20 -17 0 -20 7 -20 40 0 33 -3 40 -20 40 -17 0 -20 7 -20 45 0
38 -3 45 -20 45 -17 0 -20 7 -20 40 0 33 -3 40 -20 40 -18 0 -20 7 -20 60 0
53 -2 60 -20 60 -18 0 -20 7 -20 60 0 53 -2 60 -20 60 -18 0 -20 7 -20 85 0
78 -2 85 -20 85 -20 0 -20 7 -20 370 0 363 0 370 20 370 18 0 20 7 20 80 0 73
2 80 20 80 18 0 20 7 20 65 0 58 2 65 20 65 17 0 20 7 20 40 0 33 3 40 20 40
17 0 20 7 20 40 0 33 3 40 20 40 17 0 20 7 20 40 0 33 3 40 20 40 17 0 20 7
20 45 0 38 3 45 20 45 13 0 20 7 20 20 0 15 7 20 25 20 23 0 25 4 25 40 0 33
3 40 20 40 13 0 20 7 20 20 0 13 7 20 20 20 13 0 20 7 20 20 0 13 7 20 20 20
13 0 20 7 20 20 0 13 7 20 20 20 13 0 20 7 20 20 0 13 7 20 20 20 13 0 20 7
20 20 0 13 7 20 20 20 15 0 20 7 20 25 0 18 5 25 20 25 13 0 20 7 20 20 0 13
7 20 20 20 13 0 20 7 20 20 0 15 7 20 25 20 18 0 25 5 25 20 0 17 7 20 40 20
33 0 40 3 40 20 0 13 7 20 20 20 13 0 20 7 20 20 0 17 7 20 40 20 33 0 40 3
40 20 0 17 7 20 40 20 33 0 40 3 40 20 0 18 7 20 65 20 58 0 65 2 65 20 0 18
7 20 60 20 57 0 60 1 60 25 l0 25 100 0 c93 0 100 1 100 20 0 19 7 20 250 20
243 0 250 -1 250 -20 0 -19 7 -20 100 -20 l100 0 0 -25 c0 -22 4 -25 40 -25
33 0 40 -3 40 -20 0 -18 7 -20 65 -20 58 0 65 -2 65 -20 0 -13 7 -20 20 -20
13 0 20 -7 20 -20 0 -17 7 -20 40 -20 33 0 40 -3 40 -20 0 -13 7 -20 20 -20
13 0 20 -7 20 -20 0 -17 7 -20 40 -20 33 0 40 -3 40 -20 0 -13 7 -20 20 -20
13 0 20 -7 20 -20 0 -15 7 -20 25 -20 18 0 25 -5 25 -20 0 -13 7 -20 20 -20
15 0 20 -7 20 -25 0 -18 5 -25 20 -25 17 0 20 -7 20 -40 0 -33 3 -40 20 -40
13 0 20 -7 20 -20 0 -13 7 -20 20 -20 13 0 20 -7 20 -20 0 -13 7 -20 20 -20
18 0 20 -7 20 -60 0 -53 2 -60 20 -60 17 0 20 -7 20 -45 0 -38 3 -45 20 -45
17 0 20 -7 20 -40 0 -33 3 -40 20 -40 18 0 20 -7 20 -60 0 -53 2 -60 20 -60
19 0 20 -7 20 -105 l0 -105 25 0 25 0 0 -100 0 -100 -25 0 -25 0 0 -105 c0
-98 -1 -105 -20 -105 -18 0 -20 -7 -20 -60 0 -53 -2 -60 -20 -60 -17 0 -20 -7
-20 -40 0 -33 -3 -40 -20 -40 -13 0 -20 -7 -20 -20 0 -13 -7 -20 -20 -20 -17
0 -20 -7 -20 -45 0 -38 -3 -45 -20 -45 -13 0 -20 -7 -20 -20 0 -13 -7 -20 -20
-20 -13 0 -20 -7 -20 -20 0 -13 -7 -20 -20 -20 -13 0 -20 -7 -20 -20 0 -13 -7
-20 -20 -20 -13 0 -20 -7 -20 -20 0 -13 -7 -20 -20 -20 -13 0 -20 -7 -20 -20
0 -17 -7 -20 -45 -20 -38 0 -45 -3 -45 -20 0 -13 -7 -20 -20 -20 -13 0 -20 -7
-20 -20 0 -17 -7 -20 -40 -20 -36 0 -40 -2 -40 -25 0 -22 -4 -25 -40 -25 -33
0 -40 -3 -40 -20 0 -19 -7 -20 -105 -20 -98 0 -105 -1 -105 -20 0 -19 -7 -20
-140 -20 -133 0 -140 1 -140 20 0 18 -7 20 -85 20 -78 0 -85 2 -85 20 0 17 -7
20 -40 20 -36 0 -40 3 -40 25 0 23 -4 25 -40 25 -33 0 -40 3 -40 20 0 13 -7
20 -20 20 -13 0 -20 7 -20 20 0 15 -7 20 -25 20 -18 0 -25 5 -25 20 0 13 -7
20 -20 20 -13 0 -20 7 -20 20 0 13 -7 20 -20 20 -13 0 -20 7 -20 20 0 13 -7
20 -20 20 -13 0 -20 7 -20 20 0 13 -7 20 -20 20 -17 0 -20 7 -20 40 0 33 -3
40 -20 40 -17 0 -20 7 -20 45 0 38 -3 45 -20 45 -18 0 -20 7 -20 60 0 53 2 60
20 60 17 0 20 -7 20 -40 0 -33 3 -40 20 -40 17 0 20 -7 20 -40 0 -33 3 -40 20
-40 17 0 20 -7 20 -45 0 -38 3 -45 20 -45 13 0 20 -7 20 -20 0 -13 7 -20 20
-20 13 0 20 -7 20 -20 0 -13 7 -20 20 -20 13 0 20 -7 20 -20 0 -15 7 -20 25
-20 18 0 25 -5 25 -20 0 -17 7 -20 40 -20 33 0 40 -3 40 -20 0 -17 7 -20 40
-20 33 0 40 -3 40 -20 0 -18 7 -20 60 -20 53 0 60 -2 60 -20 0 -19 7 -20 105
-20 98 0 105 1 105 20 0 19 7 20 100 20 93 0 100 1 100 20 0 18 7 20 65 20 58
0 65 2 65 20 0 13 7 20 20 20 13 0 20 7 20 20 0 17 7 20 40 20 33 0 40 3 40
20 0 13 7 20 20 20 13 0 20 7 20 20 0 13 7 20 20 20 13 0 20 7 20 20 0 13 7
20 20 20 13 0 20 7 20 20 0 13 7 20 20 20 17 0 20 7 20 45 0 41 2 45 25 45 23
0 25 4 25 40 0 33 3 40 20 40 17 0 20 7 20 40 0 33 3 40 20 40 20 0 20 7 20
270 0 263 0 270 -20 270 -18 0 -20 7 -20 60 0 53 -2 60 -20 60 -17 0 -20 7
-20 40 0 36 -2 40 -25 40 -22 0 -25 4 -25 40 0 33 -3 40 -20 40 -13 0 -20 7
-20 20 0 13 -7 20 -20 20 -17 0 -20 7 -20 45 0 38 -3 45 -20 45 -13 0 -20 7
-20 20 0 13 -7 20 -20 20 -13 0 -20 7 -20 20 0 13 -7 20 -20 20 -13 0 -20 7
-20 20 0 17 -7 20 -40 20 -33 0 -40 3 -40 20 0 13 -7 20 -20 20 -13 0 -20 7
-20 20 0 17 -7 20 -45 20 -38 0 -45 3 -45 20 0 17 -7 20 -40 20 -33 0 -40 3
-40 20 0 19 -7 20 -100 20 l-100 0 0 25 0 25 -145 0 -145 0 0 -25 0 -25 -105
0 c-98 0 -105 -1 -105 -20 0 -18 -7 -20 -60 -20 -53 0 -60 -2 -60 -20 0 -17
-7 -20 -40 -20 -33 0 -40 -3 -40 -20 0 -17 -7 -20 -40 -20 -33 0 -40 -3 -40
-20 0 -17 -7 -20 -45 -20 -38 0 -45 -3 -45 -20 0 -13 -7 -20 -20 -20 -13 0
-20 -7 -20 -20 0 -13 -7 -20 -20 -20 -13 0 -20 -7 -20 -20 0 -13 -7 -20 -20
-20 -13 0 -20 -7 -20 -20 0 -13 -7 -20 -20 -20 -15 0 -20 -7 -20 -25 0 -18 -5
-25 -20 -25 -13 0 -20 -7 -20 -20 0 -13 -7 -20 -20 -20 -17 0 -20 -7 -20 -40
0 -33 -3 -40 -20 -40 -13 0 -20 -7 -20 -20 0 -13 -7 -20 -20 -20 -17 0 -20 -7
-20 -40 0 -33 -3 -40 -19 -40 -15 0 -21 -10 -26 -40 -5 -30 -11 -40 -26 -40
-17 0 -19 -8 -19 -65 0 -58 -2 -65 -20 -65 -18 0 -20 -7 -20 -80 0 -73 -2 -80
-20 -80 -19 0 -20 -7 -20 -205 0 -198 1 -205 20 -205 19 0 20 -7 20 -105 0
-98 1 -105 20 -105 18 0 20 -7 20 -60 0 -53 2 -60 20 -60 17 0 20 -7 20 -40 0
-36 3 -40 25 -40 23 0 25 -4 25 -45 0 -38 3 -45 20 -45 17 0 20 -7 20 -40 0
-33 3 -40 20 -40 13 0 20 -7 20 -20 0 -13 7 -20 20 -20 17 0 20 -7 20 -40 0
-33 3 -40 20 -40 13 0 20 -7 20 -20 0 -13 7 -20 20 -20 13 0 20 -7 20 -20 0
-13 7 -20 20 -20 15 0 20 -7 20 -25 0 -18 5 -25 20 -25 13 0 20 -7 20 -20 0
-13 7 -20 20 -20 13 0 20 -7 20 -20 0 -15 7 -20 25 -20 18 0 25 -5 25 -20 0
-13 7 -20 20 -20 13 0 20 -7 20 -20 0 -13 7 -20 20 -20 13 0 20 -7 20 -20 0
-17 7 -20 40 -20 33 0 40 -3 40 -20 0 -13 7 -20 20 -20 13 0 20 -7 20 -20 0
-17 7 -20 40 -20 33 0 40 -3 40 -20 0 -17 7 -20 40 -20 36 0 40 -2 40 -25 0
-24 2 -25 65 -25 58 0 65 -2 65 -20 0 -18 7 -20 60 -20 53 0 60 -2 60 -20 0
-19 7 -20 145 -20 138 0 145 -1 145 -20 0 -17 7 -20 40 -20 33 0 40 3 40 20 0
19 7 20 185 20 178 0 185 1 185 20 0 18 7 20 60 20 53 0 60 2 60 20 0 18 7 20
65 20 63 0 65 1 65 25 0 24 3 25 60 25 53 0 60 2 60 20 0 17 7 20 40 20 33 0
40 3 40 20 0 17 7 20 40 20 33 0 40 3 40 20 0 17 7 20 45 20 38 0 45 3 45 20
0 13 7 20 20 20 13 0 20 7 20 20 0 17 7 20 40 20 33 0 40 3 40 20 0 13 7 20
20 20 13 0 20 7 20 20 0 13 7 20 20 20 13 0 20 7 20 20 0 13 7 20 20 20 15 0
20 7 20 25 0 18 5 25 20 25 13 0 20 7 20 20 0 13 7 20 20 20 13 0 20 7 20 20
0 15 7 20 25 20 18 0 25 5 25 20 0 13 7 20 20 20 13 0 20 7 20 20 0 13 7 20
20 20 13 0 20 7 20 20 0 13 7 20 20 20 13 0 20 7 20 20 0 13 7 20 20 20 17 0
20 7 20 40 0 33 3 40 20 40 15 0 20 7 20 25 0 18 5 25 20 25 17 0 20 7 20 40
0 33 3 40 20 40 17 0 20 7 20 40 0 33 3 40 20 40 17 0 20 7 20 40 0 33 3 40
20 40 17 0 20 7 20 40 0 36 3 40 25 40 24 0 25 2 25 65 0 58 2 65 20 65 18 0
20 7 20 80 0 73 2 80 20 80 20 0 20 7 20 390 0 383 0 390 -20 390 -19 0 -20 7
-20 125 0 118 -1 125 -20 125 -18 0 -20 7 -20 60 0 57 -1 60 -25 60 -24 0 -25
2 -25 65 0 58 -2 65 -20 65 -18 0 -20 7 -20 60 0 53 -2 60 -20 60 -17 0 -20 7
-20 40 0 33 -3 40 -20 40 -17 0 -20 7 -20 40 0 33 -3 40 -20 40 -17 0 -20 7
-20 45 0 38 -3 45 -20 45 -13 0 -20 7 -20 20 0 13 -7 20 -20 20 -17 0 -20 7
-20 40 0 33 -3 40 -20 40 -13 0 -20 7 -20 20 0 13 -7 20 -20 20 -17 0 -20 7
-20 40 0 36 -2 40 -25 40 -18 0 -25 5 -25 20 0 13 -7 20 -20 20 -15 0 -20 7
-20 25 0 18 -5 25 -20 25 -13 0 -20 7 -20 20 0 13 -7 20 -20 20 -13 0 -20 7
-20 20 0 13 -7 20 -20 20 -13 0 -20 7 -20 20 0 13 -7 20 -20 20 -13 0 -20 7
-20 20 0 13 -7 20 -20 20 -13 0 -20 7 -20 20 0 13 -7 20 -20 20 -13 0 -20 7
-20 20 0 13 -7 20 -20 20 -13 0 -20 7 -20 20 0 13 -7 20 -20 20 -13 0 -20 7
-20 20 0 15 -7 20 -25 20 -20 0 -25 5 -25 25 0 23 -4 25 -40 25 -33 0 -40 3
-40 20 0 13 -7 20 -20 20 -13 0 -20 7 -20 20 0 17 -7 20 -40 20 -33 0 -40 3
-40 20 0 17 -7 20 -40 20 -33 0 -40 3 -40 20 0 13 -7 20 -20 20 -13 0 -20 7
-20 20 0 17 -7 20 -45 20 -38 0 -45 3 -45 20 0 17 -7 20 -40 20 -33 0 -40 3
-40 20 0 18 -7 20 -60 20 -53 0 -60 2 -60 20 0 18 -7 20 -60 20 -57 0 -60 1
-60 25 0 24 -2 25 -65 25 -58 0 -65 2 -65 20 0 18 -7 20 -60 20 -53 0 -60 2
-60 20 0 19 -7 20 -165 20 -158 0 -165 1 -165 20 0 19 -7 20 -205 20 -198 0
-205 -1 -205 -20 0 -19 -7 -20 -165 -20 -158 0 -165 -1 -165 -20 0 -19 -7 -20
-100 -20 -93 0 -100 -1 -100 -20 0 -18 -7 -20 -65 -20 -63 0 -65 -1 -65 -25 0
-24 -3 -25 -60 -25 -53 0 -60 -2 -60 -20 0 -18 -7 -20 -60 -20 -53 0 -60 -2
-60 -20 0 -17 -7 -20 -40 -20 -33 0 -40 -3 -40 -20 0 -17 -7 -20 -45 -20 -38
0 -45 -3 -45 -20 0 -17 -7 -20 -40 -20 -33 0 -40 -3 -40 -20 0 -17 -7 -20 -40
-20 -33 0 -40 -3 -40 -20 0 -17 -7 -20 -40 -20 -33 0 -40 -3 -40 -20 0 -17 -7
-20 -40 -20 -33 0 -40 -3 -40 -20 0 -15 -7 -20 -25 -20 -20 0 -25 -5 -25 -25
0 -22 -4 -25 -40 -25 -33 0 -40 -3 -40 -20 0 -13 -7 -20 -20 -20 -13 0 -20 -7
-20 -20 0 -17 -7 -20 -40 -20 -33 0 -40 -3 -40 -20 0 -13 -7 -20 -20 -20 -13
0 -20 -7 -20 -20 0 -17 -7 -20 -40 -20 -33 0 -40 -3 -40 -20 0 -15 -7 -20 -25
-20 -18 0 -25 -5 -25 -20 0 -13 -7 -20 -20 -20 -13 0 -20 -7 -20 -20 0 -13 -7
-20 -20 -20 -13 0 -20 -7 -20 -20 0 -13 -7 -20 -20 -20 -15 0 -20 -7 -20 -25
0 -18 -5 -25 -20 -25 -13 0 -20 -7 -20 -20 0 -13 -7 -20 -20 -20 -13 0 -20 -7
-20 -20 0 -13 -7 -20 -20 -20 -13 0 -20 -7 -20 -20 0 -13 -7 -20 -20 -20 -13
0 -20 -7 -20 -20 0 -13 -7 -20 -20 -20 -13 0 -20 -7 -20 -20 0 -13 -7 -20 -20
-20 -13 0 -20 -7 -20 -20 0 -15 -7 -20 -25 -20 -22 0 -25 -4 -25 -40 0 -33 -3
-40 -20 -40 -15 0 -20 -7 -20 -25 0 -18 -5 -25 -20 -25 -13 0 -20 -7 -20 -20
0 -13 -7 -20 -20 -20 -17 0 -20 -7 -20 -40 0 -33 -3 -40 -20 -40 -13 0 -20 -7
-20 -20 0 -13 -7 -20 -20 -20 -17 0 -20 -7 -20 -40 0 -33 -3 -40 -20 -40 -17
0 -20 -7 -20 -40 0 -33 -3 -40 -20 -40 -17 0 -20 -7 -20 -45 0 -38 -3 -45 -20
-45 -17 0 -20 -7 -20 -40 0 -36 -2 -40 -25 -40 -22 0 -25 -4 -25 -40 0 -33 -3
-40 -20 -40 -17 0 -20 -7 -20 -40 0 -33 -3 -40 -20 -40 -18 0 -20 -7 -20 -65
0 -58 -2 -65 -20 -65 -18 0 -20 -7 -20 -60 0 -53 -2 -60 -20 -60 -18 0 -20 -7
-20 -60 0 -53 -2 -60 -20 -60 -18 0 -20 -7 -20 -85 0 -78 -2 -85 -20 -85 -19
0 -20 -7 -20 -120 0 -113 -1 -120 -20 -120 -20 0 -20 -7 -20 -455 0 -448 0
-455 20 -455 19 0 20 -7 20 -145 0 -138 1 -145 20 -145 19 0 20 -7 20 -100 0
-93 1 -100 20 -100 18 0 20 -7 20 -85 0 -78 2 -85 20 -85 18 0 20 -7 20 -60 0
-53 2 -60 20 -60 18 0 20 -7 20 -60 0 -53 2 -60 20 -60 18 0 20 -7 20 -65 0
-58 2 -65 20 -65 17 0 20 -7 20 -40 0 -36 3 -40 25 -40 24 0 25 -3 25 -60 0
-53 2 -60 20 -60 17 0 20 -7 20 -45 0 -38 3 -45 20 -45 17 0 20 -7 20 -40 0
-33 3 -40 20 -40 17 0 20 -7 20 -40 0 -33 3 -40 20 -40 17 0 20 -7 20 -40 0
-33 3 -40 20 -40 13 0 20 -7 20 -20 0 -13 7 -20 20 -20 17 0 20 -7 20 -45 0
-38 3 -45 20 -45 17 0 20 -7 20 -40 0 -33 3 -40 20 -40 13 0 20 -7 20 -20 0
-15 7 -20 25 -20 23 0 25 -4 25 -40 0 -33 3 -40 20 -40 13 0 20 -7 20 -20 0
-13 7 -20 20 -20 17 0 20 -7 20 -40 0 -33 3 -40 20 -40 15 0 20 -7 20 -25 0
-18 5 -25 20 -25 13 0 20 -7 20 -20 0 -13 7 -20 20 -20 13 0 20 -7 20 -20 0
-13 7 -20 20 -20 13 0 20 -7 20 -20 0 -13 7 -20 20 -20 17 0 20 -7 20 -40 0
-33 3 -40 20 -40 13 0 20 -7 20 -20 0 -13 7 -20 20 -20 13 0 20 -7 20 -20 0
-15 7 -20 25 -20 18 0 25 -5 25 -20 0 -13 7 -20 20 -20 15 0 20 -7 20 -25 0
-18 5 -25 20 -25 13 0 20 -7 20 -20 0 -13 7 -20 20 -20 13 0 20 -7 20 -20 0
-13 7 -20 20 -20 13 0 20 -7 20 -20 0 -13 7 -20 20 -20 13 0 20 -7 20 -20 0
-13 7 -20 20 -20 13 0 20 -7 20 -20 0 -17 7 -20 40 -20 33 0 40 -3 40 -20 0
-15 7 -20 25 -20 18 0 25 -5 25 -20 0 -13 7 -20 20 -20 13 0 20 -7 20 -20 0
-13 7 -20 20 -20 15 0 20 -7 20 -25 0 -18 5 -25 20 -25 13 0 20 -7 20 -20 0
-17 7 -20 40 -20 33 0 40 -3 40 -20 0 -13 7 -20 20 -20 13 0 20 -7 20 -20 0
-17 7 -20 40 -20 33 0 40 -3 40 -20 0 -13 7 -20 20 -20 13 0 20 -7 20 -20 0
-17 7 -20 45 -20 38 0 45 -3 45 -20 0 -13 7 -20 20 -20 13 0 20 -7 20 -20 0
-17 7 -20 40 -20 33 0 40 -3 40 -20 0 -17 7 -20 40 -20 36 0 40 -2 40 -25 0
-22 4 -25 40 -25 33 0 40 -3 40 -20 0 -17 7 -20 45 -20 38 0 45 -3 45 -20 0
-17 7 -20 40 -20 33 0 40 -3 40 -20 0 -17 7 -20 40 -20 33 0 40 -3 40 -20 0
-18 7 -20 60 -20 53 0 60 -2 60 -20 0 -17 7 -20 45 -20 38 0 45 -3 45 -20 0
-18 7 -20 60 -20 53 0 60 -2 60 -20 0 -18 7 -20 80 -20 73 0 80 -2 80 -20 0
-18 7 -20 85 -20 84 0 85 0 85 -25 0 -24 3 -25 60 -25 53 0 60 -2 60 -20 0
-19 7 -20 125 -20 118 0 125 -1 125 -20 0 -19 7 -20 225 -20 218 0 225 -1 225
-20 0 -19 7 -20 225 -20 218 0 225 1 225 20 0 19 7 20 225 20 218 0 225 1 225
20 0 19 7 20 145 20 138 0 145 1 145 20 0 18 7 20 80 20 79 0 80 0 80 25 l0
25 105 0 c98 0 105 1 105 20 0 18 7 20 60 20 53 0 60 2 60 20 0 18 7 20 60 20
53 0 60 2 60 20 0 18 7 20 65 20 58 0 65 2 65 20 0 18 7 20 60 20 53 0 60 2
60 20 0 18 7 20 60 20 53 0 60 2 60 20 0 17 7 20 45 20 38 0 45 3 45 20 0 18
7 20 60 20 53 0 60 2 60 20 0 17 7 20 40 20 36 0 40 3 40 25 0 23 4 25 40 25
33 0 40 3 40 20 0 17 7 20 40 20 33 0 40 3 40 20 0 17 7 20 45 20 38 0 45 3
45 20 0 17 7 20 40 20 33 0 40 3 40 20 0 13 7 20 20 20 13 0 20 7 20 20 0 17
7 20 40 20 33 0 40 3 40 20 0 17 7 20 40 20 33 0 40 3 40 20 0 15 7 20 25 20
18 0 25 5 25 20 0 17 7 20 40 20 36 0 40 3 40 25 0 18 5 25 20 25 13 0 20 7
20 20 0 17 7 20 40 20 33 0 40 3 40 20 0 13 7 20 20 20 13 0 20 7 20 20 0 17
7 20 40 20 33 0 40 3 40 20 0 13 7 20 20 20 13 0 20 7 20 20 0 17 7 20 45 20
38 0 45 3 45 20 0 13 7 20 20 20 13 0 20 7 20 20 0 13 7 20 20 20 13 0 20 7
20 20 0 13 7 20 20 20 15 0 20 7 20 25 0 18 5 25 20 25 13 0 20 7 20 20 0 17
7 20 40 20 33 0 40 3 40 20 0 13 7 20 20 20 13 0 20 7 20 20 0 15 7 20 25 20
18 0 25 5 25 20 0 13 7 20 20 20 13 0 20 7 20 20 0 13 7 20 20 20 13 0 20 7
20 20 0 13 7 20 20 20 13 0 20 7 20 20 0 13 7 20 20 20 13 0 20 7 20 20 0 13
7 20 20 20 15 0 20 7 20 25 0 18 5 25 20 25 13 0 20 7 20 20 0 13 7 20 20 20
13 0 20 7 20 20 0 13 7 20 20 20 13 0 20 7 20 20 0 13 7 20 20 20 13 0 20 7
20 20 0 15 7 20 25 20 18 0 25 5 25 20 0 13 7 20 20 20 13 0 20 7 20 20 0 13
7 20 20 20 17 0 20 7 20 40 0 33 3 40 20 40 15 0 20 7 20 25 0 18 5 25 20 25
13 0 20 7 20 20 0 13 7 20 20 20 13 0 20 7 20 20 0 13 7 20 20 20 17 0 20 7
20 40 0 33 3 40 20 40 13 0 20 7 20 20 0 13 7 20 20 20 13 0 20 7 20 20 0 13
7 20 20 20 17 0 20 7 20 40 0 36 3 40 25 40 20 0 25 5 25 25 0 18 5 25 20 25
17 0 20 7 20 40 0 33 3 40 20 40 13 0 20 7 20 20 0 13 7 20 20 20 17 0 20 7
20 40 0 33 3 40 20 40 13 0 20 7 20 20 0 13 7 20 20 20 17 0 20 7 20 40 0 33
3 40 20 40 17 0 20 7 20 45 0 38 3 45 20 45 17 0 20 7 20 40 0 33 3 40 20 40
17 0 20 7 20 40 0 36 3 40 25 40 18 0 25 5 25 20 0 13 7 20 20 20 17 0 20 7
20 45 0 38 3 45 20 45 17 0 20 7 20 40 0 33 3 40 20 40 18 0 20 7 20 60 0 53
2 60 20 60 17 0 20 7 20 40 0 33 3 40 20 40 17 0 20 7 20 45 0 38 3 45 20 45
18 0 20 7 20 60 0 53 2 60 20 60 17 0 20 7 20 40 0 33 3 40 20 40 18 0 20 7
20 60 0 53 2 60 20 60 18 0 20 7 20 65 0 63 1 65 25 65 25 0 25 1 25 80 0 73
2 80 20 80 18 0 20 7 20 85 0 78 2 85 20 85 18 0 20 7 20 80 0 73 2 80 20 80
19 0 20 7 20 165 0 158 1 165 20 165 19 0 20 7 20 105 0 98 1 105 20 105 20 0
20 -7 20 -270 0 -263 0 -270 -20 -270 -19 0 -20 -7 -20 -165 0 -158 -1 -165
-20 -165 -19 0 -20 -7 -20 -120 0 -113 -1 -120 -20 -120 -18 0 -20 -7 -20 -85
0 -78 -2 -85 -20 -85 -18 0 -20 -7 -20 -80 0 -73 -2 -80 -20 -80 -18 0 -20 -7
-20 -85 0 -84 0 -85 -25 -85 -24 0 -25 -3 -25 -60 0 -53 -2 -60 -20 -60 -18 0
-20 -7 -20 -60 0 -53 -2 -60 -20 -60 -17 0 -20 -7 -20 -45 0 -38 -3 -45 -20
-45 -18 0 -20 -7 -20 -60 0 -53 -2 -60 -20 -60 -17 0 -20 -7 -20 -40 0 -33 -3
-40 -20 -40 -17 0 -20 -7 -20 -45 0 -38 -3 -45 -20 -45 -18 0 -20 -7 -20 -60
0 -53 -2 -60 -20 -60 -17 0 -20 -7 -20 -40 0 -33 -3 -40 -20 -40 -17 0 -20 -7
-20 -40 0 -33 -3 -40 -20 -40 -13 0 -20 -7 -20 -20 0 -15 -7 -20 -25 -20 -23
0 -25 -4 -25 -45 0 -38 -3 -45 -20 -45 -17 0 -20 -7 -20 -40 0 -33 -3 -40 -20
-40 -17 0 -20 -7 -20 -40 0 -33 -3 -40 -20 -40 -13 0 -20 -7 -20 -20 0 -13 -7
-20 -20 -20 -17 0 -20 -7 -20 -40 0 -33 -3 -40 -20 -40 -17 0 -20 -7 -20 -45
0 -38 -3 -45 -20 -45 -13 0 -20 -7 -20 -20 0 -13 -7 -20 -20 -20 -17 0 -20 -7
-20 -40 0 -33 -3 -40 -20 -40 -13 0 -20 -7 -20 -20 0 -15 -7 -20 -25 -20 -18
0 -25 -5 -25 -20 0 -13 -7 -20 -20 -20 -17 0 -20 -7 -20 -40 0 -33 -3 -40 -20
-40 -15 0 -20 -7 -20 -25 0 -18 -5 -25 -20 -25 -13 0 -20 -7 -20 -20 0 -13 -7
-20 -20 -20 -17 0 -20 -7 -20 -40 0 -33 -3 -40 -20 -40 -13 0 -20 -7 -20 -20
0 -13 -7 -20 -20 -20 -13 0 -20 -7 -20 -20 0 -13 -7 -20 -20 -20 -13 0 -20 -7
-20 -20 0 -13 -7 -20 -20 -20 -13 0 -20 -7 -20 -20 0 -13 -7 -20 -20 -20 -13
0 -20 -7 -20 -20 0 -15 -7 -20 -25 -20 -23 0 -25 -4 -25 -45 0 -38 -3 -45 -20
-45 -13 0 -20 -7 -20 -20 0 -13 -7 -20 -20 -20 -13 0 -20 -7 -20 -20 0 -13 -7
-20 -20 -20 -13 0 -20 -7 -20 -20 0 -13 -7 -20 -20 -20 -13 0 -20 -7 -20 -20
0 -13 -7 -20 -20 -20 -13 0 -20 -7 -20 -20 0 -13 -7 -20 -20 -20 -13 0 -20 -7
-20 -20 0 -13 -7 -20 -20 -20 -13 0 -20 -7 -20 -20 0 -13 -7 -20 -20 -20 -15
0 -20 -7 -20 -25 0 -20 -5 -25 -25 -25 -18 0 -25 -5 -25 -20 0 -17 -7 -20 -40
-20 -33 0 -40 -3 -40 -20 0 -13 -7 -20 -20 -20 -13 0 -20 -7 -20 -20 0 -13 -7
-20 -20 -20 -13 0 -20 -7 -20 -20 0 -13 -7 -20 -20 -20 -13 0 -20 -7 -20 -20
0 -13 -7 -20 -20 -20 -13 0 -20 -7 -20 -20 0 -17 -7 -20 -40 -20 -33 0 -40 -3
-40 -20 0 -13 -7 -20 -20 -20 -13 0 -20 -7 -20 -20 0 -15 -7 -20 -25 -20 -20
0 -25 -5 -25 -25 0 -18 -5 -25 -20 -25 -13 0 -20 -7 -20 -20 0 -17 -7 -20 -40
-20 -33 0 -40 -3 -40 -20 0 -13 -7 -20 -20 -20 -13 0 -20 -7 -20 -20 0 -17 -7
-20 -40 -20 -33 0 -40 -3 -40 -20 0 -13 -7 -20 -20 -20 -13 0 -20 -7 -20 -20
0 -17 -7 -20 -40 -20 -33 0 -40 -3 -40 -20 0 -15 -7 -20 -25 -20 -18 0 -25 -5
-25 -20 0 -17 -7 -20 -40 -20 -33 0 -40 -3 -40 -20 0 -17 -7 -20 -40 -20 -36
0 -40 -2 -40 -25 0 -18 -5 -25 -20 -25 -13 0 -20 -7 -20 -20 0 -17 -7 -20 -40
-20 -33 0 -40 -3 -40 -20 0 -17 -7 -20 -45 -20 -38 0 -45 -3 -45 -20 0 -17 -7
-20 -40 -20 -33 0 -40 -3 -40 -20 0 -17 -7 -20 -40 -20 -33 0 -40 -3 -40 -20
0 -17 -7 -20 -40 -20 -33 0 -40 -3 -40 -20 0 -17 -7 -20 -40 -20 -33 0 -40 -3
-40 -20 0 -18 -7 -20 -65 -20 -58 0 -65 -2 -65 -20 0 -17 -7 -20 -40 -20 -36
0 -40 -2 -40 -25 0 -24 -3 -25 -60 -25 -53 0 -60 -2 -60 -20 0 -17 -7 -20 -40
-20 -33 0 -40 -3 -40 -20 0 -18 -7 -20 -65 -20 -58 0 -65 -2 -65 -20 0 -18 -7
-20 -80 -20 -73 0 -80 -2 -80 -20 0 -18 -7 -20 -60 -20 -53 0 -60 -2 -60 -20
0 -18 -7 -20 -85 -20 -78 0 -85 -2 -85 -20 0 -18 -7 -20 -80 -20 -73 0 -80 -2
-80 -20 0 -19 -7 -20 -125 -20 -118 0 -125 -1 -125 -20 0 -19 -7 -20 -145 -20
l-145 0 0 -25 0 -25 -635 0 -635 0 0 25 0 25 -145 0 c-138 0 -145 1 -145 20 0
19 -7 20 -100 20 -93 0 -100 1 -100 20 0 18 -7 20 -85 20 -78 0 -85 2 -85 20
0 18 -7 20 -60 20 -53 0 -60 2 -60 20 0 18 -7 20 -80 20 -73 0 -80 2 -80 20 0
17 -7 20 -40 20 -33 0 -40 3 -40 20 0 18 -7 20 -65 20 -58 0 -65 2 -65 20 0
18 -7 20 -60 20 -53 0 -60 2 -60 20 0 17 -7 20 -40 20 -36 0 -40 3 -40 25 0
23 -4 25 -45 25 -38 0 -45 3 -45 20 0 17 -7 20 -40 20 -33 0 -40 3 -40 20 0
17 -7 20 -40 20 -33 0 -40 3 -40 20 0 17 -7 20 -40 20 -33 0 -40 3 -40 20 0
17 -7 20 -40 20 -33 0 -40 3 -40 20 0 17 -7 20 -45 20 -38 0 -45 3 -45 20 0
13 -7 20 -20 20 -13 0 -20 7 -20 20 0 17 -7 20 -40 20 -33 0 -40 3 -40 20 0
13 -7 20 -20 20 -15 0 -20 7 -20 25 0 23 -4 25 -40 25 -33 0 -40 3 -40 20 0
13 -7 20 -20 20 -13 0 -20 7 -20 20 0 17 -7 20 -45 20 -38 0 -45 3 -45 20 0
13 -7 20 -20 20 -13 0 -20 7 -20 20 0 13 -7 20 -20 20 -13 0 -20 7 -20 20 0
17 -7 20 -40 20 -33 0 -40 3 -40 20 0 13 -7 20 -20 20 -13 0 -20 7 -20 20 0
13 -7 20 -20 20 -13 0 -20 7 -20 20 0 13 -7 20 -20 20 -15 0 -20 7 -20 25 0
23 -4 25 -40 25 -33 0 -40 3 -40 20 0 15 -7 20 -25 20 -18 0 -25 5 -25 20 0
13 -7 20 -20 20 -13 0 -20 7 -20 20 0 13 -7 20 -20 20 -13 0 -20 7 -20 20 0
13 -7 20 -20 20 -13 0 -20 7 -20 20 0 13 -7 20 -20 20 -13 0 -20 7 -20 20 0
13 -7 20 -20 20 -13 0 -20 7 -20 20 0 13 -7 20 -20 20 -13 0 -20 7 -20 20 0
13 -7 20 -20 20 -15 0 -20 7 -20 25 0 18 -5 25 -20 25 -13 0 -20 7 -20 20 0
15 -7 20 -25 20 -18 0 -25 5 -25 20 0 13 -7 20 -20 20 -17 0 -20 7 -20 40 0
33 -3 40 -20 40 -13 0 -20 7 -20 20 0 13 -7 20 -20 20 -13 0 -20 7 -20 20 0
13 -7 20 -20 20 -13 0 -20 7 -20 20 0 13 -7 20 -20 20 -17 0 -20 7 -20 45 0
38 -3 45 -20 45 -13 0 -20 7 -20 20 0 13 -7 20 -20 20 -13 0 -20 7 -20 20 0
13 -7 20 -20 20 -17 0 -20 7 -20 40 0 33 -3 40 -20 40 -13 0 -20 7 -20 20 0
15 -7 20 -25 20 -22 0 -25 4 -25 40 0 33 -3 40 -20 40 -13 0 -20 7 -20 20 0
13 -7 20 -20 20 -17 0 -20 7 -20 45 0 38 -3 45 -20 45 -17 0 -20 7 -20 40 0
33 -3 40 -20 40 -13 0 -20 7 -20 20 0 13 -7 20 -20 20 -17 0 -20 7 -20 40 0
33 -3 40 -20 40 -17 0 -20 7 -20 40 0 33 -3 40 -20 40 -17 0 -20 7 -20 45 0
38 -3 45 -20 45 -17 0 -20 7 -20 40 0 33 -3 40 -20 40 -17 0 -20 7 -20 40 0
36 -2 40 -25 40 -24 0 -25 3 -25 60 0 53 -2 60 -20 60 -17 0 -20 7 -20 45 0
38 -3 45 -20 45 -18 0 -20 7 -20 60 0 53 -2 60 -20 60 -17 0 -20 7 -20 40 0
33 -3 40 -20 40 -18 0 -20 7 -20 85 0 78 -2 85 -20 85 -18 0 -20 7 -20 60 0
53 -2 60 -20 60 -18 0 -20 7 -20 85 0 78 -2 85 -20 85 -18 0 -20 7 -20 80 0
73 -2 80 -20 80 -19 0 -20 7 -20 165 l0 165 -25 0 -25 0 0 595 0 595 25 0 c25
0 25 1 25 85 0 78 2 85 20 85 19 0 20 7 20 100 0 93 1 100 20 100 18 0 20 7
20 85 0 78 2 85 20 85 18 0 20 7 20 60 0 53 2 60 20 60 18 0 20 7 20 60 0 53
2 60 20 60 17 0 20 7 20 40 0 33 3 40 20 40 18 0 20 7 20 65 0 58 2 65 20 65
17 0 20 7 20 40 0 33 3 40 20 40 17 0 20 7 20 40 0 33 3 40 19 40 15 0 21 10
26 40 5 30 11 40 26 40 16 0 19 7 19 45 0 38 3 45 20 45 17 0 20 7 20 40 0 33
3 40 20 40 13 0 20 7 20 20 0 13 7 20 20 20 17 0 20 7 20 40 0 33 3 40 20 40
17 0 20 7 20 40 0 33 3 40 20 40 15 0 20 7 20 25 0 18 5 25 20 25 17 0 20 7
20 40 0 33 3 40 20 40 13 0 20 7 20 20 0 13 7 20 20 20 17 0 20 7 20 40 0 36
3 40 25 40 18 0 25 5 25 20 0 13 7 20 20 20 13 0 20 7 20 20 0 13 7 20 20 20
13 0 20 7 20 20 0 13 7 20 20 20 17 0 20 7 20 45 0 38 3 45 20 45 13 0 20 7
20 20 0 13 7 20 20 20 13 0 20 7 20 20 0 13 7 20 20 20 13 0 20 7 20 20 0 13
7 20 20 20 13 0 20 7 20 20 0 13 7 20 20 20 13 0 20 7 20 20 0 13 7 20 20 20
13 0 20 7 20 20 0 15 7 20 25 20 18 0 25 5 25 20 0 13 7 20 20 20 15 0 20 7
20 25 0 18 5 25 20 25 13 0 20 7 20 20 0 13 7 20 20 20 13 0 20 7 20 20 0 17
7 20 40 20 33 0 40 3 40 20 0 13 7 20 20 20 13 0 20 7 20 20 0 13 7 20 20 20
13 0 20 7 20 20 0 13 7 20 20 20 13 0 20 7 20 20 0 17 7 20 45 20 38 0 45 3
45 20 0 13 7 20 20 20 13 0 20 7 20 20 0 17 7 20 40 20 36 0 40 3 40 25 0 18
5 25 20 25 13 0 20 7 20 20 0 17 7 20 40 20 33 0 40 3 40 20 0 13 7 20 20 20
13 0 20 7 20 20 0 17 7 20 45 20 38 0 45 3 45 20 0 17 7 20 40 20 33 0 40 3
40 20 0 17 7 20 40 20 33 0 40 3 40 20 0 17 7 20 40 20 33 0 40 3 40 20 0 17
7 20 40 20 33 0 40 3 40 20 0 17 7 20 45 20 41 0 45 2 45 25 0 24 3 25 60 25
53 0 60 2 60 20 0 17 7 20 40 20 33 0 40 3 40 20 0 18 7 20 60 20 53 0 60 2
60 20 0 18 7 20 85 20 78 0 85 2 85 20 0 18 7 20 80 20 73 0 80 2 80 20 0 18
7 20 85 20 78 0 85 2 85 20 0 19 7 20 185 20 178 0 185 1 185 20 0 20 7 20
370 20 363 0 370 0 370 -20z m193 -9525 c28 -4 57 -15 68 -26 19 -19 19 -45
19 -1052 0 -811 -3 -1037 -12 -1049 -7 -9 -31 -21 -53 -27 -51 -14 -219 -14
-267 -1 -73 21 -68 -59 -68 1072 0 612 4 1027 9 1041 18 47 134 63 304 42z
m-748 -65 c42 -21 73 -73 81 -136 8 -66 -9 -159 -34 -194 -30 -41 -103 -61
-207 -57 -163 5 -205 46 -205 197 0 115 25 167 90 192 56 22 228 20 275 -2z
m-3639 -64 c143 -30 256 -85 276 -134 6 -15 12 -77 12 -138 0 -89 -3 -116 -17
-137 -10 -15 -23 -27 -31 -27 -7 0 -46 18 -88 40 -130 68 -218 93 -333 94 -83
0 -108 -4 -150 -22 -63 -29 -83 -48 -106 -97 -29 -63 -25 -141 9 -196 45 -69
103 -107 312 -202 209 -94 281 -138 360 -217 124 -125 166 -237 157 -425 -8
-171 -58 -287 -172 -400 -116 -114 -298 -185 -510 -200 -239 -16 -555 80 -607
185 -21 41 -25 216 -7 268 19 54 44 53 150 -9 36 -22 103 -53 150 -71 75 -28
99 -32 216 -36 105 -3 141 -1 181 12 116 39 176 118 176 231 -1 131 -64 188
-353 319 -183 83 -271 139 -349 220 -130 135 -178 315 -137 510 51 242 238
401 523 446 76 12 250 5 338 -14z m9713 -5 c24 -5 47 -15 52 -22 5 -8 9 -389
9 -846 l0 -833 165 0 c161 0 167 -1 190 -24 39 -39 47 -192 13 -262 l-13 -29
-565 -3 c-311 -1 -575 0 -586 3 -59 14 -73 237 -19 291 24 24 28 24 215 24
l190 0 0 650 c0 358 -2 650 -4 650 -2 0 -76 -40 -165 -89 -88 -49 -174 -94
-192 -100 -65 -23 -84 16 -78 163 4 76 7 88 29 109 19 19 381 256 459 302 41
24 212 33 300 16z m-1662 -26 c174 -28 295 -87 393 -192 106 -112 146 -230
143 -418 -2 -184 -43 -314 -135 -430 -140 -176 -351 -255 -679 -255 l-149 0 0
-329 c0 -360 1 -352 -58 -368 -51 -15 -284 -9 -317 7 l-30 15 0 957 0 956 25
27 c14 15 34 31 45 35 37 16 660 11 762 -5z m-6364 -495 c82 -25 156 -83 211
-162 l39 -57 65 59 c166 153 321 208 502 181 150 -23 274 -109 334 -234 60
-123 60 -125 64 -714 l3 -542 -26 -17 c-54 -36 -328 -28 -352 9 -5 7 -10 230
-13 497 -5 481 -5 485 -28 535 -43 92 -93 128 -182 129 -78 1 -140 -32 -227
-122 l-73 -74 0 -467 c0 -519 2 -501 -68 -521 -48 -13 -216 -13 -267 1 -22 6
-46 18 -52 27 -10 12 -13 123 -13 476 0 529 -2 547 -74 622 -98 102 -218 80
-359 -65 l-77 -79 0 -469 c0 -360 -3 -473 -12 -485 -7 -9 -31 -21 -53 -27 -51
-14 -219 -14 -267 -1 -72 20 -68 -23 -68 752 0 678 1 699 19 717 27 27 74 34
186 29 128 -5 135 -12 135 -131 l0 -89 79 74 c87 82 185 139 277 163 77 19
208 13 297 -15z m4030 1 c99 -26 166 -62 238 -129 104 -96 158 -208 184 -381
27 -178 17 -283 -32 -321 -25 -19 -38 -20 -474 -20 -353 0 -449 -3 -449 -12 1
-46 23 -158 39 -193 29 -65 84 -119 152 -150 121 -54 341 -44 548 26 153 52
165 43 159 -118 -3 -100 -4 -106 -31 -128 -15 -14 -63 -35 -106 -49 -138 -44
-252 -60 -421 -59 -133 1 -169 4 -253 26 -131 35 -208 77 -292 162 -113 112
-166 247 -186 467 -49 560 246 922 736 903 65 -2 142 -12 188 -24z m-2091 -11
c73 -21 68 36 68 -744 0 -546 -3 -706 -12 -718 -7 -9 -31 -21 -53 -27 -51 -14
-219 -14 -267 -1 -72 20 -68 -23 -68 745 0 762 -3 725 63 744 44 13 224 13
269 1z"/>
<path d="M10190 2359 l0 -341 158 4 c138 3 162 6 203 25 130 65 199 222 170
394 -18 112 -59 172 -144 216 -53 27 -166 42 -314 43 l-73 0 0 -341z"/>
<path d="M7970 2241 c-50 -16 -89 -41 -128 -86 -45 -52 -70 -112 -81 -197 l-7
-58 293 0 c272 0 293 1 293 18 0 51 -24 153 -46 200 -28 58 -83 103 -149 121
-45 12 -137 13 -175 2z"/>
</g>
</svg>
