<?xml version="1.0" standalone="no"?>
<!DOCTYPE svg PUBLIC "-//W3C//DTD SVG 20010904//EN"
 "http://www.w3.org/TR/2001/REC-SVG-20010904/DTD/svg10.dtd">
<svg version="1.0" xmlns="http://www.w3.org/2000/svg"
 width="887.000000pt" height="899.000000pt" viewBox="0 0 887.000000 899.000000"
 preserveAspectRatio="xMidYMid meet">
<metadata>
Created by potrace 1.13, written by Peter Selinger 2001-2015
</metadata>
<g transform="translate(0.000000,899.000000) scale(0.100000,-0.100000)"
fill="#000000" stroke="none">
<path d="M3450 8845 c-17 -10 -59 -15 -135 -15 -76 0 -118 -5 -135 -15 -14 -8
-41 -14 -60 -15 -19 0 -48 -7 -64 -15 -15 -8 -41 -15 -57 -15 -17 0 -46 -7
-66 -15 -19 -8 -45 -15 -57 -15 -22 0 -127 -36 -236 -80 -100 -40 -432 -205
-465 -230 -18 -14 -46 -33 -62 -42 -15 -10 -48 -31 -73 -48 -25 -17 -58 -38
-75 -48 -16 -9 -54 -40 -85 -68 -30 -28 -70 -59 -88 -68 -48 -25 -356 -333
-380 -381 -11 -22 -39 -57 -62 -79 -22 -21 -50 -55 -61 -75 -21 -38 -55 -89
-87 -131 -11 -14 -33 -52 -50 -86 -17 -33 -36 -65 -44 -71 -14 -12 -129 -247
-168 -343 -41 -101 -110 -305 -110 -326 0 -12 -7 -38 -15 -57 -8 -20 -15 -54
-15 -75 0 -22 -7 -56 -15 -75 -8 -20 -15 -51 -15 -69 -1 -18 -7 -44 -15 -58
-20 -34 -22 -899 -2 -933 6 -12 15 -71 18 -132 3 -60 10 -123 16 -140 14 -36
31 -105 42 -160 4 -22 20 -74 34 -116 15 -43 29 -93 31 -112 3 -20 15 -55 27
-78 11 -23 29 -65 39 -93 45 -128 223 -507 248 -529 8 -6 27 -38 44 -71 17
-34 37 -69 46 -79 16 -18 34 -45 77 -117 11 -18 39 -55 62 -82 24 -27 43 -53
43 -59 0 -5 27 -39 60 -74 33 -35 60 -70 60 -77 0 -17 329 -347 365 -365 17
-9 56 -40 87 -69 31 -30 61 -54 67 -54 5 0 36 -22 67 -50 31 -27 62 -50 68
-50 6 -1 27 -14 46 -30 19 -17 39 -30 45 -30 5 -1 26 -14 45 -30 19 -17 38
-30 43 -30 5 0 23 -12 41 -27 37 -31 481 -253 506 -253 10 0 31 -7 46 -15 16
-8 37 -15 47 -15 10 0 42 -13 72 -30 31 -17 69 -30 89 -30 19 0 50 -6 68 -14
63 -26 103 -38 148 -45 25 -4 55 -13 67 -19 12 -7 43 -12 70 -12 26 -1 59 -7
73 -15 16 -9 55 -14 105 -15 51 0 90 -6 109 -15 41 -22 928 -22 966 0 16 9 55
15 105 15 50 0 89 6 105 15 15 8 54 15 95 15 41 0 80 7 95 15 14 8 41 15 60
15 19 0 46 7 60 15 14 8 39 14 57 15 18 0 47 6 65 14 62 25 103 38 148 46 51
9 87 21 180 60 112 48 173 72 220 88 63 21 415 196 454 225 17 13 51 34 76 47
47 24 107 63 240 155 19 13 49 32 65 41 17 9 56 41 87 70 31 30 62 54 68 54 7
0 44 31 84 69 39 38 85 75 101 84 36 19 305 288 305 306 0 7 43 57 95 111 52
54 95 103 95 109 0 6 20 33 45 61 25 28 45 55 45 60 0 5 19 32 43 59 52 61 76
98 121 183 20 36 40 69 46 73 6 4 31 48 56 98 26 51 56 106 69 122 29 40 95
170 95 190 0 8 20 56 45 105 25 49 45 97 45 105 0 9 11 37 24 63 29 57 96 254
96 282 0 10 9 42 20 70 11 28 20 64 20 79 0 16 7 42 15 57 8 16 15 45 15 64 1
19 7 46 15 60 8 14 14 52 15 88 0 35 6 76 15 92 11 21 15 68 17 174 1 99 6
147 14 150 16 6 29 272 14 310 -8 22 -13 26 -24 17 -13 -11 -19 -51 -35 -236
-4 -49 -13 -103 -19 -118 -7 -16 -12 -43 -12 -61 0 -18 -7 -41 -15 -52 -8 -10
-15 -33 -15 -51 0 -18 -9 -55 -20 -83 -11 -28 -20 -61 -20 -73 -1 -12 -19 -74
-41 -137 -22 -63 -44 -128 -48 -145 -4 -16 -20 -53 -34 -82 -15 -29 -27 -59
-27 -68 0 -8 -20 -56 -45 -105 -25 -49 -45 -97 -45 -105 0 -20 -46 -111 -60
-120 -6 -4 -37 -60 -70 -125 -52 -104 -150 -264 -208 -340 -11 -14 -26 -38
-35 -55 -8 -16 -27 -41 -42 -55 -15 -14 -34 -38 -42 -55 -9 -16 -39 -54 -68
-85 -29 -30 -59 -68 -68 -85 -20 -39 -439 -455 -458 -455 -8 0 -44 -30 -79
-66 -36 -36 -78 -73 -95 -81 -16 -9 -41 -25 -55 -35 -31 -24 -319 -211 -392
-255 -67 -40 -375 -193 -448 -223 -160 -65 -551 -193 -600 -197 -30 -2 -69
-11 -87 -19 -17 -8 -46 -14 -65 -14 -18 -1 -44 -7 -58 -15 -16 -9 -55 -15
-105 -15 -50 0 -89 -6 -105 -15 -18 -10 -64 -14 -170 -15 -106 -1 -152 -5
-170 -15 -19 -11 -63 -14 -170 -14 -107 0 -151 3 -170 14 -18 11 -63 14 -171
15 -112 0 -150 3 -165 15 -12 9 -43 14 -86 15 -37 0 -82 6 -100 14 -63 26
-103 38 -148 45 -25 4 -55 13 -67 19 -12 7 -35 12 -52 12 -17 0 -45 6 -63 14
-89 37 -147 60 -188 73 -131 44 -509 251 -640 351 -14 11 -38 26 -55 35 -16 8
-55 41 -85 72 -30 31 -71 65 -90 75 -40 21 -300 280 -300 299 0 7 -30 44 -67
82 -37 38 -76 85 -87 103 -12 19 -48 74 -81 124 -33 50 -74 115 -92 144 -48
80 -173 328 -173 345 0 7 -9 32 -21 55 -29 57 -129 362 -129 396 -1 15 -7 38
-15 52 -8 14 -15 48 -15 75 0 28 -7 61 -15 75 -9 16 -15 55 -15 105 0 50 -6
89 -15 105 -21 37 -21 623 0 660 8 14 14 52 15 88 0 35 5 73 12 85 6 12 15 42
19 67 4 25 12 61 19 80 7 19 18 51 25 70 7 19 18 51 24 70 7 19 16 49 20 65 9
33 199 410 234 464 12 18 38 52 58 75 20 22 43 55 52 71 18 36 369 382 412
407 17 10 50 31 75 48 25 17 58 38 73 48 16 9 44 28 62 42 18 14 108 62 201
106 163 79 204 96 269 114 39 11 91 29 133 46 18 8 54 14 80 14 26 1 58 7 72
15 17 10 58 15 125 15 67 0 108 5 125 15 37 21 336 21 376 0 20 -10 59 -15
121 -15 55 0 105 -5 125 -14 42 -17 94 -35 133 -46 30 -8 69 -21 135 -46 19
-7 46 -15 60 -18 14 -3 50 -21 80 -40 30 -19 84 -51 120 -71 36 -20 81 -46
100 -58 51 -33 388 -366 411 -407 21 -38 56 -90 87 -130 22 -28 123 -235 142
-290 6 -19 15 -48 20 -65 11 -39 29 -91 46 -133 8 -18 14 -61 14 -95 1 -35 7
-73 15 -87 11 -20 14 -75 14 -265 0 -190 -3 -245 -14 -265 -8 -14 -15 -38 -15
-55 -2 -76 -116 -347 -203 -485 -38 -60 -329 -343 -392 -382 -104 -63 -195
-104 -355 -159 -143 -49 -165 -54 -280 -61 -160 -10 -167 -10 -280 1 -136 12
-375 99 -445 161 -11 10 -33 25 -50 33 -35 18 -260 247 -292 298 -38 59 -96
173 -104 204 -9 36 -27 88 -45 133 -8 18 -14 54 -14 80 0 26 -7 60 -15 76 -19
35 -21 217 -3 249 6 12 15 42 19 67 9 59 23 98 71 195 55 114 72 137 175 244
85 89 100 100 200 147 138 66 165 75 238 83 33 4 70 12 82 19 31 17 191 15
223 -3 14 -8 46 -14 73 -15 46 0 138 -40 236 -103 45 -28 140 -123 168 -168
25 -39 94 -177 114 -229 19 -49 19 -332 0 -380 -52 -133 -87 -193 -151 -253
-107 -101 -190 -144 -305 -156 -33 -4 -71 -13 -83 -20 -28 -15 -120 -11 -172
9 -111 41 -159 69 -228 135 -70 66 -117 140 -146 233 -8 25 -17 27 -34 10 -21
-21 -13 -65 27 -150 33 -69 55 -98 133 -175 97 -97 203 -163 261 -163 15 0 44
-7 64 -15 48 -20 191 -20 229 0 16 8 50 15 77 15 50 0 155 45 213 92 16 13 41
30 56 37 40 20 156 147 202 220 45 71 97 218 89 250 -3 12 4 43 16 70 28 65
28 153 0 223 -11 29 -18 63 -16 76 9 45 -86 267 -166 391 -35 54 -168 191
-207 212 -37 21 -82 51 -139 94 -19 14 -43 25 -53 25 -10 0 -45 14 -78 30 -44
22 -73 30 -113 30 -31 0 -61 6 -73 15 -27 21 -337 21 -374 0 -14 -8 -46 -14
-72 -15 -26 0 -62 -6 -80 -14 -45 -18 -97 -36 -133 -45 -40 -11 -138 -61 -205
-106 -89 -60 -325 -295 -383 -383 -79 -119 -153 -284 -166 -372 -4 -25 -13
-55 -19 -67 -19 -34 -16 -580 3 -613 8 -14 14 -37 15 -52 0 -41 73 -254 114
-336 41 -81 113 -192 156 -237 15 -16 35 -43 43 -60 17 -34 218 -235 235 -235
6 0 34 -19 61 -43 70 -60 101 -79 236 -145 116 -58 156 -74 220 -92 39 -11 91
-29 133 -46 20 -9 71 -14 130 -14 69 -1 103 -5 116 -15 29 -22 342 -21 370 0
12 9 43 15 75 15 31 1 67 7 81 15 14 8 47 14 73 15 27 0 58 5 70 12 12 6 35
15 52 19 44 11 92 28 165 59 36 16 86 36 112 45 26 9 62 27 80 40 18 13 62 40
98 60 87 48 122 72 181 122 27 24 55 43 61 43 16 0 187 171 205 204 9 17 48
64 87 107 90 97 96 106 211 333 99 193 175 392 175 457 0 20 7 53 15 72 10 23
15 70 15 129 1 62 6 101 15 118 10 18 14 60 14 150 0 90 -4 132 -14 150 -10
18 -14 61 -15 150 0 91 -4 133 -15 154 -8 15 -15 41 -15 57 0 17 -7 46 -15 66
-8 19 -15 45 -15 56 0 53 -90 277 -191 476 -120 236 -133 259 -196 332 -24 27
-43 55 -43 61 0 17 -400 417 -435 435 -16 9 -49 32 -71 52 -56 49 -92 71 -206
130 -53 28 -99 55 -103 61 -8 13 -100 60 -117 60 -7 0 -60 23 -118 50 -58 28
-116 50 -130 50 -14 0 -63 14 -110 30 -46 17 -96 30 -111 30 -15 0 -40 7 -55
15 -20 10 -60 15 -124 15 -63 1 -103 5 -120 15 -20 11 -77 14 -275 14 -198 0
-255 -3 -275 -14z"/>
<path d="M3960 1703 c-40 -15 -40 -7 -40 -810 0 -738 1 -774 18 -791 35 -35
207 -39 260 -6 l22 14 0 784 c0 716 -1 785 -17 797 -17 14 -212 24 -243 12z"/>
<path d="M3373 1654 c-45 -22 -68 -85 -60 -161 8 -77 31 -105 98 -122 60 -15
166 -4 196 21 42 34 57 146 28 214 -10 23 -26 39 -49 49 -48 20 -172 19 -213
-1z"/>
<path d="M625 1620 c-286 -36 -446 -228 -413 -496 20 -172 128 -285 378 -394
117 -51 155 -73 202 -118 69 -66 75 -160 15 -229 -49 -55 -96 -73 -202 -73
-115 0 -186 19 -298 78 l-88 47 -21 -25 c-17 -21 -19 -36 -16 -116 3 -82 6
-95 27 -118 90 -95 377 -147 566 -102 98 23 209 81 266 138 96 96 146 255 122
394 -30 174 -129 273 -389 388 -146 64 -200 100 -230 152 -22 37 -26 54 -22
93 9 95 75 141 199 141 91 0 130 -10 242 -62 69 -33 90 -39 100 -29 7 7 13 50
15 107 3 74 1 100 -12 119 -47 72 -274 125 -441 105z"/>
<path d="M7955 1601 c-40 -17 -350 -222 -367 -242 -18 -22 -25 -127 -12 -176
10 -38 50 -28 186 47 70 39 130 70 133 70 3 0 5 -220 5 -490 l0 -490 -151 0
-150 0 -15 -35 c-24 -58 -13 -177 18 -197 7 -4 202 -8 434 -8 346 0 424 2 439
14 28 20 35 164 11 201 -16 25 -19 25 -146 25 l-130 0 0 628 c0 377 -4 633
-10 642 -7 12 -34 16 -117 17 -59 2 -117 -1 -128 -6z"/>
<path d="M6345 1591 c-11 -5 -29 -19 -40 -31 -20 -22 -20 -38 -23 -736 l-2
-713 26 -18 c35 -22 204 -24 249 -2 l30 14 3 253 2 252 116 0 c373 0 582 162
610 474 17 194 -63 358 -215 440 -112 60 -169 69 -466 72 -148 2 -279 0 -290
-5z m530 -258 c81 -42 117 -107 117 -213 1 -94 -23 -160 -77 -208 -54 -51 -94
-62 -222 -62 l-103 0 0 256 0 257 123 -5 c97 -4 130 -9 162 -25z"/>
<path d="M1930 1228 c-73 -11 -140 -45 -222 -113 l-68 -55 0 53 c0 29 -6 61
-13 71 -27 37 -171 43 -224 10 l-23 -14 0 -530 c0 -502 1 -531 18 -548 35 -35
207 -39 260 -6 l22 14 0 359 0 359 70 65 c80 76 126 94 189 77 53 -14 85 -42
107 -92 17 -39 19 -81 22 -411 l4 -368 26 -11 c35 -14 199 -14 235 0 l27 12 0
355 0 356 28 36 c38 51 117 111 160 122 50 14 107 -1 143 -35 54 -52 59 -92
59 -476 l0 -348 23 -14 c52 -33 224 -29 259 6 17 17 18 40 18 346 0 465 -14
560 -96 664 -67 87 -199 133 -331 117 -77 -10 -170 -58 -242 -125 -59 -55 -65
-57 -75 -39 -27 47 -100 114 -147 134 -62 27 -157 39 -229 29z"/>
<path d="M4910 1229 c-225 -26 -373 -161 -436 -399 -22 -80 -25 -297 -5 -385
33 -152 116 -267 234 -324 99 -48 167 -62 307 -63 191 0 379 47 407 102 17 34
17 151 -1 175 -13 18 -16 18 -102 -8 -219 -66 -376 -64 -471 9 -42 32 -78 107
-87 182 l-7 52 335 0 335 0 27 23 c23 20 27 33 31 93 7 92 -18 228 -55 309
-81 172 -275 261 -512 234z m164 -223 c66 -28 116 -118 116 -210 l0 -36 -220
0 c-121 0 -220 2 -220 5 0 2 5 28 11 57 20 93 57 147 124 182 38 20 144 21
189 2z"/>
<path d="M3416 1209 c-40 -4 -64 -13 -73 -25 -10 -14 -13 -124 -13 -541 0
-495 1 -524 18 -541 35 -35 207 -39 260 -6 l22 15 -2 537 -3 537 -25 11 c-35
16 -114 22 -184 13z"/>
</g>
</svg>
